<svg xmlns="http://www.w3.org/2000/svg" width="1360" height="920" viewBox="0 0 1360 920" role="img" aria-labelledby="title desc">
  <title id="title">ECP Reference Validation Matrix</title>
  <desc id="desc">A parameter-level matrix comparing the three recorded ECP responses to the disclosed reference.</desc>
  <rect width="1360" height="920" fill="#fcfcfa"/>
  <text x="40" y="52" font-family="Arial, Helvetica, sans-serif" font-size="28" font-weight="700" fill="#1f2937">ECP Reference Validation Matrix</text>
  <text x="40" y="82" font-family="Arial, Helvetica, sans-serif" font-size="16" fill="#4b5563">Parameter-level comparison from the validation report. Green = exact, amber = partial or indirect, red = incorrect, gray = no data.</text>

  <rect x="40" y="110" width="18" height="18" fill="#9ad17b" stroke="#64748b"/>
  <text x="66" y="124" font-family="Arial, Helvetica, sans-serif" font-size="14" fill="#334155">exact</text>
  <rect x="140" y="110" width="18" height="18" fill="#f6c85f" stroke="#64748b"/>
  <text x="166" y="124" font-family="Arial, Helvetica, sans-serif" font-size="14" fill="#334155">partial / indirect</text>
  <rect x="330" y="110" width="18" height="18" fill="#f29c99" stroke="#64748b"/>
  <text x="356" y="124" font-family="Arial, Helvetica, sans-serif" font-size="14" fill="#334155">incorrect</text>
  <rect x="470" y="110" width="18" height="18" fill="#d9d9d9" stroke="#64748b"/>
  <text x="496" y="124" font-family="Arial, Helvetica, sans-serif" font-size="14" fill="#334155">no data</text>

  <rect x="40" y="162" width="500" height="42" fill="#1f2937"/>
  <rect x="540" y="162" width="165" height="42" fill="#1f2937"/>
  <rect x="705" y="162" width="165" height="42" fill="#1f2937"/>
  <rect x="870" y="162" width="165" height="42" fill="#1f2937"/>
  <rect x="1035" y="162" width="285" height="42" fill="#1f2937"/>
  <text x="58" y="189" font-family="Arial, Helvetica, sans-serif" font-size="17" font-weight="700" fill="#ffffff">Reference parameter</text>
  <text x="588" y="189" font-family="Arial, Helvetica, sans-serif" font-size="17" font-weight="700" fill="#ffffff">Vladislav</text>
  <text x="736" y="189" font-family="Arial, Helvetica, sans-serif" font-size="17" font-weight="700" fill="#ffffff">Ekaterina</text>
  <text x="907" y="189" font-family="Arial, Helvetica, sans-serif" font-size="17" font-weight="700" fill="#ffffff">Tatyana</text>
  <text x="1073" y="189" font-family="Arial, Helvetica, sans-serif" font-size="17" font-weight="700" fill="#ffffff">Summary</text>

  <g font-family="Arial, Helvetica, sans-serif" font-size="15" fill="#111827">
    <rect x="40" y="204" width="500" height="58" fill="#f8fafc" stroke="#cbd5e1"/>
    <rect x="540" y="204" width="165" height="58" fill="#9ad17b" stroke="#cbd5e1"/>
    <rect x="705" y="204" width="165" height="58" fill="#f6c85f" stroke="#cbd5e1"/>
    <rect x="870" y="204" width="165" height="58" fill="#9ad17b" stroke="#cbd5e1"/>
    <rect x="1035" y="204" width="285" height="58" fill="#eef2f7" stroke="#cbd5e1"/>
    <text x="58" y="238">Beacon / signal device</text>
    <text x="1060" y="238">2 exact, 1 partial</text>

    <rect x="40" y="262" width="500" height="58" fill="#ffffff" stroke="#cbd5e1"/>
    <rect x="540" y="262" width="165" height="58" fill="#9ad17b" stroke="#cbd5e1"/>
    <rect x="705" y="262" width="165" height="58" fill="#9ad17b" stroke="#cbd5e1"/>
    <rect x="870" y="262" width="165" height="58" fill="#9ad17b" stroke="#cbd5e1"/>
    <rect x="1035" y="262" width="285" height="58" fill="#eef2f7" stroke="#cbd5e1"/>
    <text x="58" y="296">Part of larger system</text>
    <text x="1068" y="296">3 exact</text>

    <rect x="40" y="320" width="500" height="58" fill="#f8fafc" stroke="#cbd5e1"/>
    <rect x="540" y="320" width="165" height="58" fill="#9ad17b" stroke="#cbd5e1"/>
    <rect x="705" y="320" width="165" height="58" fill="#9ad17b" stroke="#cbd5e1"/>
    <rect x="870" y="320" width="165" height="58" fill="#9ad17b" stroke="#cbd5e1"/>
    <rect x="1035" y="320" width="285" height="58" fill="#eef2f7" stroke="#cbd5e1"/>
    <text x="58" y="354">No own consciousness</text>
    <text x="1068" y="354">3 exact</text>

    <rect x="40" y="378" width="500" height="58" fill="#ffffff" stroke="#cbd5e1"/>
    <rect x="540" y="378" width="165" height="58" fill="#9ad17b" stroke="#cbd5e1"/>
    <rect x="705" y="378" width="165" height="58" fill="#d9d9d9" stroke="#cbd5e1"/>
    <rect x="870" y="378" width="165" height="58" fill="#d9d9d9" stroke="#cbd5e1"/>
    <rect x="1035" y="378" width="285" height="58" fill="#eef2f7" stroke="#cbd5e1"/>
    <text x="58" y="412">Mountains / desert terrain</text>
    <text x="1068" y="412">1 exact</text>

    <rect x="40" y="436" width="500" height="58" fill="#f8fafc" stroke="#cbd5e1"/>
    <rect x="540" y="436" width="165" height="58" fill="#9ad17b" stroke="#cbd5e1"/>
    <rect x="705" y="436" width="165" height="58" fill="#9ad17b" stroke="#cbd5e1"/>
    <rect x="870" y="436" width="165" height="58" fill="#9ad17b" stroke="#cbd5e1"/>
    <rect x="1035" y="436" width="285" height="58" fill="#eef2f7" stroke="#cbd5e1"/>
    <text x="58" y="470">Non-terrestrial origin</text>
    <text x="1068" y="470">3 exact</text>

    <rect x="40" y="494" width="500" height="58" fill="#ffffff" stroke="#cbd5e1"/>
    <rect x="540" y="494" width="165" height="58" fill="#f29c99" stroke="#cbd5e1"/>
    <rect x="705" y="494" width="165" height="58" fill="#d9d9d9" stroke="#cbd5e1"/>
    <rect x="870" y="494" width="165" height="58" fill="#d9d9d9" stroke="#cbd5e1"/>
    <rect x="1035" y="494" width="285" height="58" fill="#eef2f7" stroke="#cbd5e1"/>
    <text x="58" y="528">Stationary / never flew</text>
    <text x="1056" y="528">0 exact, 1 incorrect</text>

    <rect x="40" y="552" width="500" height="58" fill="#f8fafc" stroke="#cbd5e1"/>
    <rect x="540" y="552" width="165" height="58" fill="#d9d9d9" stroke="#cbd5e1"/>
    <rect x="705" y="552" width="165" height="58" fill="#d9d9d9" stroke="#cbd5e1"/>
    <rect x="870" y="552" width="165" height="58" fill="#f6c85f" stroke="#cbd5e1"/>
    <rect x="1035" y="552" width="285" height="58" fill="#eef2f7" stroke="#cbd5e1"/>
    <text x="58" y="586">Temporal navigation</text>
    <text x="1062" y="586">1 indirect</text>

    <rect x="40" y="610" width="500" height="58" fill="#ffffff" stroke="#cbd5e1"/>
    <rect x="540" y="610" width="165" height="58" fill="#f6c85f" stroke="#cbd5e1"/>
    <rect x="705" y="610" width="165" height="58" fill="#f6c85f" stroke="#cbd5e1"/>
    <rect x="870" y="610" width="165" height="58" fill="#f6c85f" stroke="#cbd5e1"/>
    <rect x="1035" y="610" width="285" height="58" fill="#eef2f7" stroke="#cbd5e1"/>
    <text x="58" y="644">Biometal</text>
    <text x="1056" y="644">3 partial</text>

    <rect x="40" y="668" width="500" height="58" fill="#f8fafc" stroke="#cbd5e1"/>
    <rect x="540" y="668" width="165" height="58" fill="#d9d9d9" stroke="#cbd5e1"/>
    <rect x="705" y="668" width="165" height="58" fill="#d9d9d9" stroke="#cbd5e1"/>
    <rect x="870" y="668" width="165" height="58" fill="#d9d9d9" stroke="#cbd5e1"/>
    <rect x="1035" y="668" width="285" height="58" fill="#eef2f7" stroke="#cbd5e1"/>
    <text x="58" y="702">Variable radioactivity</text>
    <text x="1058" y="702">not detected</text>

    <rect x="40" y="726" width="500" height="58" fill="#ffffff" stroke="#cbd5e1"/>
    <rect x="540" y="726" width="165" height="58" fill="#9ad17b" stroke="#cbd5e1"/>
    <rect x="705" y="726" width="165" height="58" fill="#9ad17b" stroke="#cbd5e1"/>
    <rect x="870" y="726" width="165" height="58" fill="#d9d9d9" stroke="#cbd5e1"/>
    <rect x="1035" y="726" width="285" height="58" fill="#eef2f7" stroke="#cbd5e1"/>
    <text x="58" y="760">Courier / passive carrier</text>
    <text x="1062" y="760">2 exact</text>
  </g>

  <text x="40" y="830" font-family="Arial, Helvetica, sans-serif" font-size="14" fill="#475569">Summary metrics from the validation report: 7/10 parameters with at least one exact match, 2/10 partial, 1/10 complete miss.</text>
  <text x="40" y="854" font-family="Arial, Helvetica, sans-serif" font-size="14" fill="#475569">Methodological note: results remain preliminary because blinding was compromised for two later participants.</text>
</svg>
