<svg id="my-svg" width="100%" xmlns="http://www.w3.org/2000/svg" xmlns:xlink="http://www.w3.org/1999/xlink" style="max-width: 2590px; background-color: white;" viewBox="100 -61 2590 782.6624755859375" role="graphics-document document" aria-roledescription="timeline"><style>#my-svg{font-family:"trebuchet ms",verdana,arial,sans-serif;font-size:16px;fill:#333;}@keyframes edge-animation-frame{from{stroke-dashoffset:0;}}@keyframes dash{to{stroke-dashoffset:0;}}#my-svg .edge-animation-slow{stroke-dasharray:9,5!important;stroke-dashoffset:900;animation:dash 50s linear infinite;stroke-linecap:round;}#my-svg .edge-animation-fast{stroke-dasharray:9,5!important;stroke-dashoffset:900;animation:dash 20s linear infinite;stroke-linecap:round;}#my-svg .error-icon{fill:#552222;}#my-svg .error-text{fill:#552222;stroke:#552222;}#my-svg .edge-thickness-normal{stroke-width:1px;}#my-svg .edge-thickness-thick{stroke-width:3.5px;}#my-svg .edge-pattern-solid{stroke-dasharray:0;}#my-svg .edge-thickness-invisible{stroke-width:0;fill:none;}#my-svg .edge-pattern-dashed{stroke-dasharray:3;}#my-svg .edge-pattern-dotted{stroke-dasharray:2;}#my-svg .marker{fill:#333333;stroke:#333333;}#my-svg .marker.cross{stroke:#333333;}#my-svg svg{font-family:"trebuchet ms",verdana,arial,sans-serif;font-size:16px;}#my-svg p{margin:0;}#my-svg .edge{stroke-width:3;}#my-svg .section--1 rect,#my-svg .section--1 path,#my-svg .section--1 circle,#my-svg .section--1 path{fill:hsl(240, 100%, 76.2745098039%);}#my-svg .section--1 text{fill:#ffffff;}#my-svg .node-icon--1{font-size:40px;color:#ffffff;}#my-svg .section-edge--1{stroke:hsl(240, 100%, 76.2745098039%);}#my-svg .edge-depth--1{stroke-width:17;}#my-svg .section--1 line{stroke:hsl(60, 100%, 86.2745098039%);stroke-width:3;}#my-svg .lineWrapper line{stroke:#ffffff;}#my-svg .disabled,#my-svg .disabled circle,#my-svg .disabled text{fill:hsl(80, 100%, 96.2745098039%);}#my-svg .disabled text{fill:#aaaa33;}#my-svg .section-0 rect,#my-svg .section-0 path,#my-svg .section-0 circle,#my-svg .section-0 path{fill:hsl(60, 100%, 73.5294117647%);}#my-svg .section-0 text{fill:black;}#my-svg .node-icon-0{font-size:40px;color:black;}#my-svg .section-edge-0{stroke:hsl(60, 100%, 73.5294117647%);}#my-svg .edge-depth-0{stroke-width:14;}#my-svg .section-0 line{stroke:hsl(240, 100%, 83.5294117647%);stroke-width:3;}#my-svg .lineWrapper line{stroke:black;}#my-svg .disabled,#my-svg .disabled circle,#my-svg .disabled text{fill:hsl(80, 100%, 96.2745098039%);}#my-svg .disabled text{fill:#aaaa33;}#my-svg .section-1 rect,#my-svg .section-1 path,#my-svg .section-1 circle,#my-svg .section-1 path{fill:hsl(80, 100%, 76.2745098039%);}#my-svg .section-1 text{fill:black;}#my-svg .node-icon-1{font-size:40px;color:black;}#my-svg .section-edge-1{stroke:hsl(80, 100%, 76.2745098039%);}#my-svg .edge-depth-1{stroke-width:11;}#my-svg .section-1 line{stroke:hsl(260, 100%, 86.2745098039%);stroke-width:3;}#my-svg .lineWrapper line{stroke:black;}#my-svg .disabled,#my-svg .disabled circle,#my-svg .disabled text{fill:hsl(80, 100%, 96.2745098039%);}#my-svg .disabled text{fill:#aaaa33;}#my-svg .section-2 rect,#my-svg .section-2 path,#my-svg .section-2 circle,#my-svg .section-2 path{fill:hsl(270, 100%, 76.2745098039%);}#my-svg .section-2 text{fill:#ffffff;}#my-svg .node-icon-2{font-size:40px;color:#ffffff;}#my-svg .section-edge-2{stroke:hsl(270, 100%, 76.2745098039%);}#my-svg .edge-depth-2{stroke-width:8;}#my-svg .section-2 line{stroke:hsl(90, 100%, 86.2745098039%);stroke-width:3;}#my-svg .lineWrapper line{stroke:#ffffff;}#my-svg .disabled,#my-svg .disabled circle,#my-svg .disabled text{fill:hsl(80, 100%, 96.2745098039%);}#my-svg .disabled text{fill:#aaaa33;}#my-svg .section-3 rect,#my-svg .section-3 path,#my-svg .section-3 circle,#my-svg .section-3 path{fill:hsl(300, 100%, 76.2745098039%);}#my-svg .section-3 text{fill:black;}#my-svg .node-icon-3{font-size:40px;color:black;}#my-svg .section-edge-3{stroke:hsl(300, 100%, 76.2745098039%);}#my-svg .edge-depth-3{stroke-width:5;}#my-svg .section-3 line{stroke:hsl(120, 100%, 86.2745098039%);stroke-width:3;}#my-svg .lineWrapper line{stroke:black;}#my-svg .disabled,#my-svg .disabled circle,#my-svg .disabled text{fill:hsl(80, 100%, 96.2745098039%);}#my-svg .disabled text{fill:#aaaa33;}#my-svg .section-4 rect,#my-svg .section-4 path,#my-svg .section-4 circle,#my-svg .section-4 path{fill:hsl(330, 100%, 76.2745098039%);}#my-svg .section-4 text{fill:black;}#my-svg .node-icon-4{font-size:40px;color:black;}#my-svg .section-edge-4{stroke:hsl(330, 100%, 76.2745098039%);}#my-svg .edge-depth-4{stroke-width:2;}#my-svg .section-4 line{stroke:hsl(150, 100%, 86.2745098039%);stroke-width:3;}#my-svg .lineWrapper line{stroke:black;}#my-svg .disabled,#my-svg .disabled circle,#my-svg .disabled text{fill:hsl(80, 100%, 96.2745098039%);}#my-svg .disabled text{fill:#aaaa33;}#my-svg .section-5 rect,#my-svg .section-5 path,#my-svg .section-5 circle,#my-svg .section-5 path{fill:hsl(0, 100%, 76.2745098039%);}#my-svg .section-5 text{fill:black;}#my-svg .node-icon-5{font-size:40px;color:black;}#my-svg .section-edge-5{stroke:hsl(0, 100%, 76.2745098039%);}#my-svg .edge-depth-5{stroke-width:-1;}#my-svg .section-5 line{stroke:hsl(180, 100%, 86.2745098039%);stroke-width:3;}#my-svg .lineWrapper line{stroke:black;}#my-svg .disabled,#my-svg .disabled circle,#my-svg .disabled text{fill:hsl(80, 100%, 96.2745098039%);}#my-svg .disabled text{fill:#aaaa33;}#my-svg .section-6 rect,#my-svg .section-6 path,#my-svg .section-6 circle,#my-svg .section-6 path{fill:hsl(30, 100%, 76.2745098039%);}#my-svg .section-6 text{fill:black;}#my-svg .node-icon-6{font-size:40px;color:black;}#my-svg .section-edge-6{stroke:hsl(30, 100%, 76.2745098039%);}#my-svg .edge-depth-6{stroke-width:-4;}#my-svg .section-6 line{stroke:hsl(210, 100%, 86.2745098039%);stroke-width:3;}#my-svg .lineWrapper line{stroke:black;}#my-svg .disabled,#my-svg .disabled circle,#my-svg .disabled text{fill:hsl(80, 100%, 96.2745098039%);}#my-svg .disabled text{fill:#aaaa33;}#my-svg .section-7 rect,#my-svg .section-7 path,#my-svg .section-7 circle,#my-svg .section-7 path{fill:hsl(90, 100%, 76.2745098039%);}#my-svg .section-7 text{fill:black;}#my-svg .node-icon-7{font-size:40px;color:black;}#my-svg .section-edge-7{stroke:hsl(90, 100%, 76.2745098039%);}#my-svg .edge-depth-7{stroke-width:-7;}#my-svg .section-7 line{stroke:hsl(270, 100%, 86.2745098039%);stroke-width:3;}#my-svg .lineWrapper line{stroke:black;}#my-svg .disabled,#my-svg .disabled circle,#my-svg .disabled text{fill:hsl(80, 100%, 96.2745098039%);}#my-svg .disabled text{fill:#aaaa33;}#my-svg .section-8 rect,#my-svg .section-8 path,#my-svg .section-8 circle,#my-svg .section-8 path{fill:hsl(150, 100%, 76.2745098039%);}#my-svg .section-8 text{fill:black;}#my-svg .node-icon-8{font-size:40px;color:black;}#my-svg .section-edge-8{stroke:hsl(150, 100%, 76.2745098039%);}#my-svg .edge-depth-8{stroke-width:-10;}#my-svg .section-8 line{stroke:hsl(330, 100%, 86.2745098039%);stroke-width:3;}#my-svg .lineWrapper line{stroke:black;}#my-svg .disabled,#my-svg .disabled circle,#my-svg .disabled text{fill:hsl(80, 100%, 96.2745098039%);}#my-svg .disabled text{fill:#aaaa33;}#my-svg .section-9 rect,#my-svg .section-9 path,#my-svg .section-9 circle,#my-svg .section-9 path{fill:hsl(180, 100%, 76.2745098039%);}#my-svg .section-9 text{fill:black;}#my-svg .node-icon-9{font-size:40px;color:black;}#my-svg .section-edge-9{stroke:hsl(180, 100%, 76.2745098039%);}#my-svg .edge-depth-9{stroke-width:-13;}#my-svg .section-9 line{stroke:hsl(0, 100%, 86.2745098039%);stroke-width:3;}#my-svg .lineWrapper line{stroke:black;}#my-svg .disabled,#my-svg .disabled circle,#my-svg .disabled text{fill:hsl(80, 100%, 96.2745098039%);}#my-svg .disabled text{fill:#aaaa33;}#my-svg .section-10 rect,#my-svg .section-10 path,#my-svg .section-10 circle,#my-svg .section-10 path{fill:hsl(210, 100%, 76.2745098039%);}#my-svg .section-10 text{fill:black;}#my-svg .node-icon-10{font-size:40px;color:black;}#my-svg .section-edge-10{stroke:hsl(210, 100%, 76.2745098039%);}#my-svg .edge-depth-10{stroke-width:-16;}#my-svg .section-10 line{stroke:hsl(30, 100%, 86.2745098039%);stroke-width:3;}#my-svg .lineWrapper line{stroke:black;}#my-svg .disabled,#my-svg .disabled circle,#my-svg .disabled text{fill:hsl(80, 100%, 96.2745098039%);}#my-svg .disabled text{fill:#aaaa33;}#my-svg .section-root rect,#my-svg .section-root path,#my-svg .section-root circle{fill:hsl(240, 100%, 46.2745098039%);}#my-svg .section-root text{fill:#ffffff;}#my-svg .icon-container{height:100%;display:flex;justify-content:center;align-items:center;}#my-svg .edge{fill:none;}#my-svg .eventWrapper{filter:brightness(120%);}#my-svg .node .neo-node{stroke:#9370DB;}#my-svg [data-look="neo"].node rect,#my-svg [data-look="neo"].cluster rect,#my-svg [data-look="neo"].node polygon{stroke:#9370DB;filter:drop-shadow(1px 2px 2px rgba(185, 185, 185, 1));}#my-svg [data-look="neo"].node path{stroke:#9370DB;stroke-width:1px;}#my-svg [data-look="neo"].node .outer-path{filter:drop-shadow(1px 2px 2px rgba(185, 185, 185, 1));}#my-svg [data-look="neo"].node .neo-line path{stroke:#9370DB;filter:none;}#my-svg [data-look="neo"].node circle{stroke:#9370DB;filter:drop-shadow(1px 2px 2px rgba(185, 185, 185, 1));}#my-svg [data-look="neo"].node circle .state-start{fill:#000000;}#my-svg [data-look="neo"].icon-shape .icon{fill:#9370DB;filter:drop-shadow(1px 2px 2px rgba(185, 185, 185, 1));}#my-svg [data-look="neo"].icon-shape .icon-neo path{stroke:#9370DB;filter:drop-shadow(1px 2px 2px rgba(185, 185, 185, 1));}#my-svg :root{--mermaid-font-family:"trebuchet ms",verdana,arial,sans-serif;}</style><g/><g/><defs><marker id="my-svg-arrowhead" refX="5" refY="2" markerWidth="6" markerHeight="4" orient="auto"><path d="M 0,0 V 4 L6,2 Z"/></marker></defs><g transform="translate(200, 50)"><g class="timeline-node section--1"><g><path id="my-svg-node-0" class="node-bkg node-undefined" d="M0 78.41562347412109 v-73.41562347412109 q0,-5,5,-5 h180 q5,0,5,5 v78.41562347412109 H0 Z"/><line class="node-line--1" x1="0" y1="83.41562347412109" x2="190" y2="83.41562347412109"/></g><g transform="translate(95, 10)"><text dy="1em" alignment-baseline="middle" dominant-baseline="middle" text-anchor="middle"><tspan x="0" dy="1em">2022</tspan></text></g></g></g><g class="taskWrapper" transform="translate(200, 183.4156234741211)"><g class="timeline-node section--1"><g><path id="my-svg-node-1" class="node-bkg node-undefined" d="M0 76.01562194824218 v-71.01562194824218 q0,-5,5,-5 h180 q5,0,5,5 v76.01562194824218 H0 Z"/><line class="node-line--1" x1="0" y1="81.01562194824218" x2="190" y2="81.01562194824218"/></g><g transform="translate(95, 10)"><text dy="1em" alignment-baseline="middle" dominant-baseline="middle" text-anchor="middle"><tspan x="0" dy="1em">Amy   Eskridge   —</tspan><tspan x="0" dy="1.1em">died   unclear   /</tspan><tspan x="0" dy="1.1em">умерла</tspan></text></g></g></g><g class="lineWrapper"><line x1="295" y1="264.4312454223633" x2="295" y2="671.6624862670899" stroke-width="2" stroke="black" marker-end="url(#my-svg-arrowhead)" stroke-dasharray="5,5"/></g><g class="eventWrapper" transform="translate(200, 383.4156234741211)"><g class="timeline-node section--1"><g><path id="my-svg-node-2" class="node-bkg node-undefined" d="M0 76.01562194824218 v-71.01562194824218 q0,-5,5,-5 h180 q5,0,5,5 v76.01562194824218 H0 Z"/><line class="node-line--1" x1="0" y1="81.01562194824218" x2="190" y2="81.01562194824218"/></g><g transform="translate(95, 10)"><text dy="1em" alignment-baseline="middle" dominant-baseline="middle" text-anchor="middle"><tspan x="0" dy="1em">Co-founder   Institute</tspan><tspan x="0" dy="1.1em">For   Exotic   Sciences</tspan><tspan x="0" dy="1.1em">(Alabama)</tspan></text></g></g></g><g class="eventWrapper" transform="translate(200, 474.4312454223633)"><g class="timeline-node section--1"><g><path id="my-svg-node-3" class="node-bkg node-undefined" d="M0 93.61562042236328 v-88.61562042236328 q0,-5,5,-5 h180 q5,0,5,5 v93.61562042236328 H0 Z"/><line class="node-line--1" x1="0" y1="98.61562042236328" x2="190" y2="98.61562042236328"/></g><g transform="translate(95, 10)"><text dy="1em" alignment-baseline="middle" dominant-baseline="middle" text-anchor="middle"><tspan x="0" dy="1em">Соосновательница</tspan><tspan x="0" dy="1.1em">Института</tspan><tspan x="0" dy="1.1em">экзотических   наук</tspan><tspan x="0" dy="1.1em">(Алабама)</tspan></text></g></g></g><g transform="translate(400, 50)"><g class="timeline-node section-0"><g><path id="my-svg-node-4" class="node-bkg node-undefined" d="M0 78.41562347412109 v-73.41562347412109 q0,-5,5,-5 h380 q5,0,5,5 v78.41562347412109 H0 Z"/><line class="node-line-0" x1="0" y1="83.41562347412109" x2="390" y2="83.41562347412109"/></g><g transform="translate(195, 10)"><text dy="1em" alignment-baseline="middle" dominant-baseline="middle" text-anchor="middle"><tspan x="0" dy="1em">earlier   years   /   ранее</tspan></text></g></g></g><g class="taskWrapper" transform="translate(400, 183.4156234741211)"><g class="timeline-node section-0"><g><path id="my-svg-node-5" class="node-bkg node-undefined" d="M0 60.815625 v-55.815625 q0,-5,5,-5 h180 q5,0,5,5 v60.815625 H0 Z"/><line class="node-line-0" x1="0" y1="65.815625" x2="190" y2="65.815625"/></g><g transform="translate(95, 10)"><text dy="1em" alignment-baseline="middle" dominant-baseline="middle" text-anchor="middle"><tspan x="0" dy="1em">Frank   Maiwald   —</tspan><tspan x="0" dy="1.1em">died   (NASA   JPL)</tspan></text></g></g></g><g class="lineWrapper"><line x1="495" y1="249.23124847412112" x2="495" y2="656.4624893188477" stroke-width="2" stroke="black" marker-end="url(#my-svg-arrowhead)" stroke-dasharray="5,5"/></g><g class="eventWrapper" transform="translate(400, 383.4156234741211)"><g class="timeline-node section-0"><g><path id="my-svg-node-6" class="node-bkg node-undefined" d="M0 76.01562194824218 v-71.01562194824218 q0,-5,5,-5 h180 q5,0,5,5 v76.01562194824218 H0 Z"/><line class="node-line-0" x1="0" y1="81.01562194824218" x2="190" y2="81.01562194824218"/></g><g transform="translate(95, 10)"><text dy="1em" alignment-baseline="middle" dominant-baseline="middle" text-anchor="middle"><tspan x="0" dy="1em">minimal   public   detail</tspan><tspan x="0" dy="1.1em">/   минимум</tspan><tspan x="0" dy="1.1em">публичных   деталей</tspan></text></g></g></g><g class="taskWrapper" transform="translate(600, 183.4156234741211)"><g class="timeline-node section-0"><g><path id="my-svg-node-7" class="node-bkg node-undefined" d="M0 60.815625 v-55.815625 q0,-5,5,-5 h180 q5,0,5,5 v60.815625 H0 Z"/><line class="node-line-0" x1="0" y1="65.815625" x2="190" y2="65.815625"/></g><g transform="translate(95, 10)"><text dy="1em" alignment-baseline="middle" dominant-baseline="middle" text-anchor="middle"><tspan x="0" dy="1em">Michael   Higgs   —</tspan><tspan x="0" dy="1.1em">died   (NASA   JPL)</tspan></text></g></g></g><g class="lineWrapper"><line x1="695" y1="249.23124847412112" x2="695" y2="656.4624893188477" stroke-width="2" stroke="black" marker-end="url(#my-svg-arrowhead)" stroke-dasharray="5,5"/></g><g class="eventWrapper" transform="translate(600, 383.4156234741211)"><g class="timeline-node section-0"><g><path id="my-svg-node-8" class="node-bkg node-undefined" d="M0 76.01562194824218 v-71.01562194824218 q0,-5,5,-5 h180 q5,0,5,5 v76.01562194824218 H0 Z"/><line class="node-line-0" x1="0" y1="81.01562194824218" x2="190" y2="81.01562194824218"/></g><g transform="translate(95, 10)"><text dy="1em" alignment-baseline="middle" dominant-baseline="middle" text-anchor="middle"><tspan x="0" dy="1em">minimal   public   detail</tspan><tspan x="0" dy="1.1em">/   минимум</tspan><tspan x="0" dy="1.1em">публичных   деталей</tspan></text></g></g></g><g transform="translate(800, 50)"><g class="timeline-node section-1"><g><path id="my-svg-node-9" class="node-bkg node-undefined" d="M0 78.41562347412109 v-73.41562347412109 q0,-5,5,-5 h180 q5,0,5,5 v78.41562347412109 H0 Z"/><line class="node-line-1" x1="0" y1="83.41562347412109" x2="190" y2="83.41562347412109"/></g><g transform="translate(95, 10)"><text dy="1em" alignment-baseline="middle" dominant-baseline="middle" text-anchor="middle"><tspan x="0" dy="1em">May   2025</tspan></text></g></g></g><g class="taskWrapper" transform="translate(800, 183.4156234741211)"><g class="timeline-node section-1"><g><path id="my-svg-node-10" class="node-bkg node-undefined" d="M0 60.815625 v-55.815625 q0,-5,5,-5 h180 q5,0,5,5 v60.815625 H0 Z"/><line class="node-line-1" x1="0" y1="65.815625" x2="190" y2="65.815625"/></g><g transform="translate(95, 10)"><text dy="1em" alignment-baseline="middle" dominant-baseline="middle" text-anchor="middle"><tspan x="0" dy="1em">Anthony   Chavez</tspan><tspan x="0" dy="1.1em">disappeared</tspan></text></g></g></g><g class="lineWrapper"><line x1="895" y1="249.23124847412112" x2="895" y2="656.4624893188477" stroke-width="2" stroke="black" marker-end="url(#my-svg-arrowhead)" stroke-dasharray="5,5"/></g><g class="eventWrapper" transform="translate(800, 383.4156234741211)"><g class="timeline-node section-1"><g><path id="my-svg-node-11" class="node-bkg node-undefined" d="M0 76.01562194824218 v-71.01562194824218 q0,-5,5,-5 h180 q5,0,5,5 v76.01562194824218 H0 Z"/><line class="node-line-1" x1="0" y1="81.01562194824218" x2="190" y2="81.01562194824218"/></g><g transform="translate(95, 10)"><text dy="1em" alignment-baseline="middle" dominant-baseline="middle" text-anchor="middle"><tspan x="0" dy="1em">retired   LANL</tspan><tspan x="0" dy="1.1em">employee   /</tspan><tspan x="0" dy="1.1em">пенсионер   ЛАНЛ</tspan></text></g></g></g><g class="eventWrapper" transform="translate(800, 474.4312454223633)"><g class="timeline-node section-1"><g><path id="my-svg-node-12" class="node-bkg node-undefined" d="M0 76.01562194824218 v-71.01562194824218 q0,-5,5,-5 h180 q5,0,5,5 v76.01562194824218 H0 Z"/><line class="node-line-1" x1="0" y1="81.01562194824218" x2="190" y2="81.01562194824218"/></g><g transform="translate(95, 10)"><text dy="1em" alignment-baseline="middle" dominant-baseline="middle" text-anchor="middle"><tspan x="0" dy="1em">house   and   car</tspan><tspan x="0" dy="1.1em">locked   /   дом   и</tspan><tspan x="0" dy="1.1em">машина   заперты</tspan></text></g></g></g><g transform="translate(1000, 50)"><g class="timeline-node section-2"><g><path id="my-svg-node-13" class="node-bkg node-undefined" d="M0 78.41562347412109 v-73.41562347412109 q0,-5,5,-5 h180 q5,0,5,5 v78.41562347412109 H0 Z"/><line class="node-line-2" x1="0" y1="83.41562347412109" x2="190" y2="83.41562347412109"/></g><g transform="translate(95, 10)"><text dy="1em" alignment-baseline="middle" dominant-baseline="middle" text-anchor="middle"><tspan x="0" dy="1em">June   2025</tspan></text></g></g></g><g class="taskWrapper" transform="translate(1000, 183.4156234741211)"><g class="timeline-node section-2"><g><path id="my-svg-node-14" class="node-bkg node-undefined" d="M0 60.815625 v-55.815625 q0,-5,5,-5 h180 q5,0,5,5 v60.815625 H0 Z"/><line class="node-line-2" x1="0" y1="65.815625" x2="190" y2="65.815625"/></g><g transform="translate(95, 10)"><text dy="1em" alignment-baseline="middle" dominant-baseline="middle" text-anchor="middle"><tspan x="0" dy="1em">Melisia   Cassias</tspan><tspan x="0" dy="1.1em">disappeared</tspan></text></g></g></g><g class="lineWrapper"><line x1="1095" y1="249.23124847412112" x2="1095" y2="656.4624893188477" stroke-width="2" stroke="black" marker-end="url(#my-svg-arrowhead)" stroke-dasharray="5,5"/></g><g class="eventWrapper" transform="translate(1000, 383.4156234741211)"><g class="timeline-node section-2"><g><path id="my-svg-node-15" class="node-bkg node-undefined" d="M0 58.41562347412109 v-53.41562347412109 q0,-5,5,-5 h180 q5,0,5,5 v58.41562347412109 H0 Z"/><line class="node-line-2" x1="0" y1="63.41562347412109" x2="190" y2="63.41562347412109"/></g><g transform="translate(95, 10)"><text dy="1em" alignment-baseline="middle" dominant-baseline="middle" text-anchor="middle"><tspan x="0" dy="1em">LANL   employee   /</tspan><tspan x="0" dy="1.1em">сотрудник   ЛАНЛ</tspan></text></g></g></g><g class="eventWrapper" transform="translate(1000, 456.8312469482422)"><g class="timeline-node section-2"><g><path id="my-svg-node-16" class="node-bkg node-undefined" d="M0 111.21561889648437 v-106.21561889648437 q0,-5,5,-5 h180 q5,0,5,5 v111.21561889648437 H0 Z"/><line class="node-line-2" x1="0" y1="116.21561889648437" x2="190" y2="116.21561889648437"/></g><g transform="translate(95, 10)"><text dy="1em" alignment-baseline="middle" dominant-baseline="middle" text-anchor="middle"><tspan x="0" dy="1em">both   phones   reset   to</tspan><tspan x="0" dy="1.1em">factory   /   оба</tspan><tspan x="0" dy="1.1em">телефона</tspan><tspan x="0" dy="1.1em">сброшены   до</tspan><tspan x="0" dy="1.1em">заводских</tspan></text></g></g></g><g transform="translate(1200, 50)"><g class="timeline-node section-3"><g><path id="my-svg-node-17" class="node-bkg node-undefined" d="M0 78.41562347412109 v-73.41562347412109 q0,-5,5,-5 h380 q5,0,5,5 v78.41562347412109 H0 Z"/><line class="node-line-3" x1="0" y1="83.41562347412109" x2="390" y2="83.41562347412109"/></g><g transform="translate(195, 10)"><text dy="1em" alignment-baseline="middle" dominant-baseline="middle" text-anchor="middle"><tspan x="0" dy="1em">2025   (date   approximate)</tspan></text></g></g></g><g class="taskWrapper" transform="translate(1200, 183.4156234741211)"><g class="timeline-node section-3"><g><path id="my-svg-node-18" class="node-bkg node-undefined" d="M0 60.815625 v-55.815625 q0,-5,5,-5 h180 q5,0,5,5 v60.815625 H0 Z"/><line class="node-line-3" x1="0" y1="65.815625" x2="190" y2="65.815625"/></g><g transform="translate(95, 10)"><text dy="1em" alignment-baseline="middle" dominant-baseline="middle" text-anchor="middle"><tspan x="0" dy="1em">Stephen   Garcia</tspan><tspan x="0" dy="1.1em">disappeared</tspan></text></g></g></g><g class="lineWrapper"><line x1="1295" y1="249.23124847412112" x2="1295" y2="656.4624893188477" stroke-width="2" stroke="black" marker-end="url(#my-svg-arrowhead)" stroke-dasharray="5,5"/></g><g class="eventWrapper" transform="translate(1200, 383.4156234741211)"><g class="timeline-node section-3"><g><path id="my-svg-node-19" class="node-bkg node-undefined" d="M0 76.01562194824218 v-71.01562194824218 q0,-5,5,-5 h180 q5,0,5,5 v76.01562194824218 H0 Z"/><line class="node-line-3" x1="0" y1="81.01562194824218" x2="190" y2="81.01562194824218"/></g><g transform="translate(95, 10)"><text dy="1em" alignment-baseline="middle" dominant-baseline="middle" text-anchor="middle"><tspan x="0" dy="1em">Kansas   City   NSC</tspan><tspan x="0" dy="1.1em">contractor   /</tspan><tspan x="0" dy="1.1em">подрядчик   KCNSC</tspan></text></g></g></g><g class="eventWrapper" transform="translate(1200, 474.4312454223633)"><g class="timeline-node section-3"><g><path id="my-svg-node-20" class="node-bkg node-undefined" d="M0 93.61562042236328 v-88.61562042236328 q0,-5,5,-5 h180 q5,0,5,5 v93.61562042236328 H0 Z"/><line class="node-line-3" x1="0" y1="98.61562042236328" x2="190" y2="98.61562042236328"/></g><g transform="translate(95, 10)"><text dy="1em" alignment-baseline="middle" dominant-baseline="middle" text-anchor="middle"><tspan x="0" dy="1em">car   keys   phone   left</tspan><tspan x="0" dy="1.1em">at   home   /   машина</tspan><tspan x="0" dy="1.1em">ключи   телефон</tspan><tspan x="0" dy="1.1em">дома</tspan></text></g></g></g><g class="taskWrapper" transform="translate(1400, 183.4156234741211)"><g class="timeline-node section-3"><g><path id="my-svg-node-21" class="node-bkg node-undefined" d="M0 76.01562194824218 v-71.01562194824218 q0,-5,5,-5 h180 q5,0,5,5 v76.01562194824218 H0 Z"/><line class="node-line-3" x1="0" y1="81.01562194824218" x2="190" y2="81.01562194824218"/></g><g transform="translate(95, 10)"><text dy="1em" alignment-baseline="middle" dominant-baseline="middle" text-anchor="middle"><tspan x="0" dy="1em">Monica</tspan><tspan x="0" dy="1.1em">Hassen-Tores</tspan><tspan x="0" dy="1.1em">disappeared</tspan></text></g></g></g><g class="lineWrapper"><line x1="1495" y1="264.4312454223633" x2="1495" y2="671.6624862670899" stroke-width="2" stroke="black" marker-end="url(#my-svg-arrowhead)" stroke-dasharray="5,5"/></g><g class="eventWrapper" transform="translate(1400, 383.4156234741211)"><g class="timeline-node section-3"><g><path id="my-svg-node-22" class="node-bkg node-undefined" d="M0 76.01562194824218 v-71.01562194824218 q0,-5,5,-5 h180 q5,0,5,5 v76.01562194824218 H0 Z"/><line class="node-line-3" x1="0" y1="81.01562194824218" x2="190" y2="81.01562194824218"/></g><g transform="translate(95, 10)"><text dy="1em" alignment-baseline="middle" dominant-baseline="middle" text-anchor="middle"><tspan x="0" dy="1em">NASA   JPL</tspan><tspan x="0" dy="1.1em">metallurgy   /   NASA</tspan><tspan x="0" dy="1.1em">JPL   металлургия</tspan></text></g></g></g><g class="eventWrapper" transform="translate(1400, 474.4312454223633)"><g class="timeline-node section-3"><g><path id="my-svg-node-23" class="node-bkg node-undefined" d="M0 111.21561889648437 v-106.21561889648437 q0,-5,5,-5 h180 q5,0,5,5 v111.21561889648437 H0 Z"/><line class="node-line-3" x1="0" y1="116.21561889648437" x2="190" y2="116.21561889648437"/></g><g transform="translate(95, 10)"><text dy="1em" alignment-baseline="middle" dominant-baseline="middle" text-anchor="middle"><tspan x="0" dy="1em">vanished   on</tspan><tspan x="0" dy="1.1em">California   hike   /</tspan><tspan x="0" dy="1.1em">исчезла   на</tspan><tspan x="0" dy="1.1em">калифорнийском</tspan><tspan x="0" dy="1.1em">треке</tspan></text></g></g></g><g transform="translate(1600, 50)"><g class="timeline-node section-4"><g><path id="my-svg-node-24" class="node-bkg node-undefined" d="M0 78.41562347412109 v-73.41562347412109 q0,-5,5,-5 h180 q5,0,5,5 v78.41562347412109 H0 Z"/><line class="node-line-4" x1="0" y1="83.41562347412109" x2="190" y2="83.41562347412109"/></g><g transform="translate(95, 10)"><text dy="1em" alignment-baseline="middle" dominant-baseline="middle" text-anchor="middle"><tspan x="0" dy="1em">Dec   2025</tspan></text></g></g></g><g class="taskWrapper" transform="translate(1600, 183.4156234741211)"><g class="timeline-node section-4"><g><path id="my-svg-node-25" class="node-bkg node-undefined" d="M0 60.815625 v-55.815625 q0,-5,5,-5 h180 q5,0,5,5 v60.815625 H0 Z"/><line class="node-line-4" x1="0" y1="65.815625" x2="190" y2="65.815625"/></g><g transform="translate(95, 10)"><text dy="1em" alignment-baseline="middle" dominant-baseline="middle" text-anchor="middle"><tspan x="0" dy="1em">Nuno   Loureiro   killed</tspan></text></g></g></g><g class="lineWrapper"><line x1="1695" y1="249.23124847412112" x2="1695" y2="656.4624893188477" stroke-width="2" stroke="black" marker-end="url(#my-svg-arrowhead)" stroke-dasharray="5,5"/></g><g class="eventWrapper" transform="translate(1600, 383.4156234741211)"><g class="timeline-node section-4"><g><path id="my-svg-node-26" class="node-bkg node-undefined" d="M0 76.01562194824218 v-71.01562194824218 q0,-5,5,-5 h180 q5,0,5,5 v76.01562194824218 H0 Z"/><line class="node-line-4" x1="0" y1="81.01562194824218" x2="190" y2="81.01562194824218"/></g><g transform="translate(95, 10)"><text dy="1em" alignment-baseline="middle" dominant-baseline="middle" text-anchor="middle"><tspan x="0" dy="1em">MIT   Plasma   &amp;</tspan><tspan x="0" dy="1.1em">Fusion   Center   head   /</tspan><tspan x="0" dy="1.1em">глава   MIT   Plasma</tspan></text></g></g></g><g class="eventWrapper" transform="translate(1600, 474.4312454223633)"><g class="timeline-node section-4"><g><path id="my-svg-node-27" class="node-bkg node-undefined" d="M0 76.01562194824218 v-71.01562194824218 q0,-5,5,-5 h180 q5,0,5,5 v76.01562194824218 H0 Z"/><line class="node-line-4" x1="0" y1="81.01562194824218" x2="190" y2="81.01562194824218"/></g><g transform="translate(95, 10)"><text dy="1em" alignment-baseline="middle" dominant-baseline="middle" text-anchor="middle"><tspan x="0" dy="1em">suspect   identified   /</tspan><tspan x="0" dy="1.1em">подозреваемый</tspan><tspan x="0" dy="1.1em">установлен</tspan></text></g></g></g><g transform="translate(1800, 50)"><g class="timeline-node section-5"><g><path id="my-svg-node-28" class="node-bkg node-undefined" d="M0 78.41562347412109 v-73.41562347412109 q0,-5,5,-5 h380 q5,0,5,5 v78.41562347412109 H0 Z"/><line class="node-line-5" x1="0" y1="83.41562347412109" x2="390" y2="83.41562347412109"/></g><g transform="translate(195, 10)"><text dy="1em" alignment-baseline="middle" dominant-baseline="middle" text-anchor="middle"><tspan x="0" dy="1em">Feb   2026</tspan></text></g></g></g><g class="taskWrapper" transform="translate(1800, 183.4156234741211)"><g class="timeline-node section-5"><g><path id="my-svg-node-29" class="node-bkg node-undefined" d="M0 60.815625 v-55.815625 q0,-5,5,-5 h180 q5,0,5,5 v60.815625 H0 Z"/><line class="node-line-5" x1="0" y1="65.815625" x2="190" y2="65.815625"/></g><g transform="translate(95, 10)"><text dy="1em" alignment-baseline="middle" dominant-baseline="middle" text-anchor="middle"><tspan x="0" dy="1em">Karl   Grillmar   shot   at</tspan><tspan x="0" dy="1.1em">home</tspan></text></g></g></g><g class="lineWrapper"><line x1="1895" y1="249.23124847412112" x2="1895" y2="656.4624893188477" stroke-width="2" stroke="black" marker-end="url(#my-svg-arrowhead)" stroke-dasharray="5,5"/></g><g class="eventWrapper" transform="translate(1800, 383.4156234741211)"><g class="timeline-node section-5"><g><path id="my-svg-node-30" class="node-bkg node-undefined" d="M0 76.01562194824218 v-71.01562194824218 q0,-5,5,-5 h180 q5,0,5,5 v76.01562194824218 H0 Z"/><line class="node-line-5" x1="0" y1="81.01562194824218" x2="190" y2="81.01562194824218"/></g><g transform="translate(95, 10)"><text dy="1em" alignment-baseline="middle" dominant-baseline="middle" text-anchor="middle"><tspan x="0" dy="1em">Caltech</tspan><tspan x="0" dy="1.1em">astrophysicist   /</tspan><tspan x="0" dy="1.1em">астрофизик   Caltech</tspan></text></g></g></g><g class="eventWrapper" transform="translate(1800, 474.4312454223633)"><g class="timeline-node section-5"><g><path id="my-svg-node-31" class="node-bkg node-undefined" d="M0 76.01562194824218 v-71.01562194824218 q0,-5,5,-5 h180 q5,0,5,5 v76.01562194824218 H0 Z"/><line class="node-line-5" x1="0" y1="81.01562194824218" x2="190" y2="81.01562194824218"/></g><g transform="translate(95, 10)"><text dy="1em" alignment-baseline="middle" dominant-baseline="middle" text-anchor="middle"><tspan x="0" dy="1em">suspect   identified   /</tspan><tspan x="0" dy="1.1em">подозреваемый</tspan><tspan x="0" dy="1.1em">установлен</tspan></text></g></g></g><g class="taskWrapper" transform="translate(2000, 183.4156234741211)"><g class="timeline-node section-5"><g><path id="my-svg-node-32" class="node-bkg node-undefined" d="M0 60.815625 v-55.815625 q0,-5,5,-5 h180 q5,0,5,5 v60.815625 H0 Z"/><line class="node-line-5" x1="0" y1="65.815625" x2="190" y2="65.815625"/></g><g transform="translate(95, 10)"><text dy="1em" alignment-baseline="middle" dominant-baseline="middle" text-anchor="middle"><tspan x="0" dy="1em">William   McCasland</tspan><tspan x="0" dy="1.1em">disappeared</tspan></text></g></g></g><g class="lineWrapper"><line x1="2095" y1="249.23124847412112" x2="2095" y2="656.4624893188477" stroke-width="2" stroke="black" marker-end="url(#my-svg-arrowhead)" stroke-dasharray="5,5"/></g><g class="eventWrapper" transform="translate(2000, 383.4156234741211)"><g class="timeline-node section-5"><g><path id="my-svg-node-33" class="node-bkg node-undefined" d="M0 93.61562042236328 v-88.61562042236328 q0,-5,5,-5 h180 q5,0,5,5 v93.61562042236328 H0 Z"/><line class="node-line-5" x1="0" y1="98.61562042236328" x2="190" y2="98.61562042236328"/></g><g transform="translate(95, 10)"><text dy="1em" alignment-baseline="middle" dominant-baseline="middle" text-anchor="middle"><tspan x="0" dy="1em">ex-AFRL</tspan><tspan x="0" dy="1.1em">major-general   /</tspan><tspan x="0" dy="1.1em">экс-генерал-майор</tspan><tspan x="0" dy="1.1em">AFRL</tspan></text></g></g></g><g class="eventWrapper" transform="translate(2000, 492.0312438964844)"><g class="timeline-node section-5"><g><path id="my-svg-node-34" class="node-bkg node-undefined" d="M0 93.61562042236328 v-88.61562042236328 q0,-5,5,-5 h180 q5,0,5,5 v93.61562042236328 H0 Z"/><line class="node-line-5" x1="0" y1="98.61562042236328" x2="190" y2="98.61562042236328"/></g><g transform="translate(95, 10)"><text dy="1em" alignment-baseline="middle" dominant-baseline="middle" text-anchor="middle"><tspan x="0" dy="1em">phone   glasses   left   ;</tspan><tspan x="0" dy="1.1em">took   revolver   /</tspan><tspan x="0" dy="1.1em">телефон   очки   дома</tspan><tspan x="0" dy="1.1em">;   забрал   револьвер</tspan></text></g></g></g><g transform="translate(2200, 50)"><g class="timeline-node section-6"><g><path id="my-svg-node-35" class="node-bkg node-undefined" d="M0 78.41562347412109 v-73.41562347412109 q0,-5,5,-5 h180 q5,0,5,5 v78.41562347412109 H0 Z"/><line class="node-line-6" x1="0" y1="83.41562347412109" x2="190" y2="83.41562347412109"/></g><g transform="translate(95, 10)"><text dy="1em" alignment-baseline="middle" dominant-baseline="middle" text-anchor="middle"><tspan x="0" dy="1em">19   April   2026</tspan></text></g></g></g><g class="taskWrapper" transform="translate(2200, 183.4156234741211)"><g class="timeline-node section-6"><g><path id="my-svg-node-36" class="node-bkg node-undefined" d="M0 60.815625 v-55.815625 q0,-5,5,-5 h180 q5,0,5,5 v60.815625 H0 Z"/><line class="node-line-6" x1="0" y1="65.815625" x2="190" y2="65.815625"/></g><g transform="translate(95, 10)"><text dy="1em" alignment-baseline="middle" dominant-baseline="middle" text-anchor="middle"><tspan x="0" dy="1em">FBI   consolidates</tspan><tspan x="0" dy="1.1em">cluster</tspan></text></g></g></g><g class="lineWrapper"><line x1="2295" y1="249.23124847412112" x2="2295" y2="656.4624893188477" stroke-width="2" stroke="black" marker-end="url(#my-svg-arrowhead)" stroke-dasharray="5,5"/></g><g class="eventWrapper" transform="translate(2200, 383.4156234741211)"><g class="timeline-node section-6"><g><path id="my-svg-node-37" class="node-bkg node-undefined" d="M0 76.01562194824218 v-71.01562194824218 q0,-5,5,-5 h180 q5,0,5,5 v76.01562194824218 H0 Z"/><line class="node-line-6" x1="0" y1="81.01562194824218" x2="190" y2="81.01562194824218"/></g><g transform="translate(95, 10)"><text dy="1em" alignment-baseline="middle" dominant-baseline="middle" text-anchor="middle"><tspan x="0" dy="1em">Kash   Patel   on   Fox</tspan><tspan x="0" dy="1.1em">News   Sunday</tspan><tspan x="0" dy="1.1em">Morning   Futures</tspan></text></g></g></g><g class="eventWrapper" transform="translate(2200, 474.4312454223633)"><g class="timeline-node section-6"><g><path id="my-svg-node-38" class="node-bkg node-undefined" d="M0 76.01562194824218 v-71.01562194824218 q0,-5,5,-5 h180 q5,0,5,5 v76.01562194824218 H0 Z"/><line class="node-line-6" x1="0" y1="81.01562194824218" x2="190" y2="81.01562194824218"/></g><g transform="translate(95, 10)"><text dy="1em" alignment-baseline="middle" dominant-baseline="middle" text-anchor="middle"><tspan x="0" dy="1em">Кэш   Патель   на   Fox</tspan><tspan x="0" dy="1.1em">News   Sunday</tspan><tspan x="0" dy="1.1em">Morning   Futures</tspan></text></g></g></g><text x="945" font-size="4ex" font-weight="bold" y="20">11 scientists — chronology / 11 учёных — хронология</text><g class="lineWrapper"><line x1="150" y1="299.2312484741211" x2="2640" y2="299.2312484741211" stroke-width="4" stroke="black" marker-end="url(#my-svg-arrowhead)"/></g></svg>