<svg id="my-svg" width="100%" xmlns="http://www.w3.org/2000/svg" xmlns:xlink="http://www.w3.org/1999/xlink" style="max-width: 3390px; background-color: white;" viewBox="100 -61 3390 853.0625" role="graphics-document document" aria-roledescription="timeline"><style>#my-svg{font-family:"trebuchet ms",verdana,arial,sans-serif;font-size:16px;fill:#333;}@keyframes edge-animation-frame{from{stroke-dashoffset:0;}}@keyframes dash{to{stroke-dashoffset:0;}}#my-svg .edge-animation-slow{stroke-dasharray:9,5!important;stroke-dashoffset:900;animation:dash 50s linear infinite;stroke-linecap:round;}#my-svg .edge-animation-fast{stroke-dasharray:9,5!important;stroke-dashoffset:900;animation:dash 20s linear infinite;stroke-linecap:round;}#my-svg .error-icon{fill:#552222;}#my-svg .error-text{fill:#552222;stroke:#552222;}#my-svg .edge-thickness-normal{stroke-width:1px;}#my-svg .edge-thickness-thick{stroke-width:3.5px;}#my-svg .edge-pattern-solid{stroke-dasharray:0;}#my-svg .edge-thickness-invisible{stroke-width:0;fill:none;}#my-svg .edge-pattern-dashed{stroke-dasharray:3;}#my-svg .edge-pattern-dotted{stroke-dasharray:2;}#my-svg .marker{fill:#333333;stroke:#333333;}#my-svg .marker.cross{stroke:#333333;}#my-svg svg{font-family:"trebuchet ms",verdana,arial,sans-serif;font-size:16px;}#my-svg p{margin:0;}#my-svg .edge{stroke-width:3;}#my-svg .section--1 rect,#my-svg .section--1 path,#my-svg .section--1 circle,#my-svg .section--1 path{fill:hsl(240, 100%, 76.2745098039%);}#my-svg .section--1 text{fill:#ffffff;}#my-svg .node-icon--1{font-size:40px;color:#ffffff;}#my-svg .section-edge--1{stroke:hsl(240, 100%, 76.2745098039%);}#my-svg .edge-depth--1{stroke-width:17;}#my-svg .section--1 line{stroke:hsl(60, 100%, 86.2745098039%);stroke-width:3;}#my-svg .lineWrapper line{stroke:#ffffff;}#my-svg .disabled,#my-svg .disabled circle,#my-svg .disabled text{fill:hsl(80, 100%, 96.2745098039%);}#my-svg .disabled text{fill:#aaaa33;}#my-svg .section-0 rect,#my-svg .section-0 path,#my-svg .section-0 circle,#my-svg .section-0 path{fill:hsl(60, 100%, 73.5294117647%);}#my-svg .section-0 text{fill:black;}#my-svg .node-icon-0{font-size:40px;color:black;}#my-svg .section-edge-0{stroke:hsl(60, 100%, 73.5294117647%);}#my-svg .edge-depth-0{stroke-width:14;}#my-svg .section-0 line{stroke:hsl(240, 100%, 83.5294117647%);stroke-width:3;}#my-svg .lineWrapper line{stroke:black;}#my-svg .disabled,#my-svg .disabled circle,#my-svg .disabled text{fill:hsl(80, 100%, 96.2745098039%);}#my-svg .disabled text{fill:#aaaa33;}#my-svg .section-1 rect,#my-svg .section-1 path,#my-svg .section-1 circle,#my-svg .section-1 path{fill:hsl(80, 100%, 76.2745098039%);}#my-svg .section-1 text{fill:black;}#my-svg .node-icon-1{font-size:40px;color:black;}#my-svg .section-edge-1{stroke:hsl(80, 100%, 76.2745098039%);}#my-svg .edge-depth-1{stroke-width:11;}#my-svg .section-1 line{stroke:hsl(260, 100%, 86.2745098039%);stroke-width:3;}#my-svg .lineWrapper line{stroke:black;}#my-svg .disabled,#my-svg .disabled circle,#my-svg .disabled text{fill:hsl(80, 100%, 96.2745098039%);}#my-svg .disabled text{fill:#aaaa33;}#my-svg .section-2 rect,#my-svg .section-2 path,#my-svg .section-2 circle,#my-svg .section-2 path{fill:hsl(270, 100%, 76.2745098039%);}#my-svg .section-2 text{fill:#ffffff;}#my-svg .node-icon-2{font-size:40px;color:#ffffff;}#my-svg .section-edge-2{stroke:hsl(270, 100%, 76.2745098039%);}#my-svg .edge-depth-2{stroke-width:8;}#my-svg .section-2 line{stroke:hsl(90, 100%, 86.2745098039%);stroke-width:3;}#my-svg .lineWrapper line{stroke:#ffffff;}#my-svg .disabled,#my-svg .disabled circle,#my-svg .disabled text{fill:hsl(80, 100%, 96.2745098039%);}#my-svg .disabled text{fill:#aaaa33;}#my-svg .section-3 rect,#my-svg .section-3 path,#my-svg .section-3 circle,#my-svg .section-3 path{fill:hsl(300, 100%, 76.2745098039%);}#my-svg .section-3 text{fill:black;}#my-svg .node-icon-3{font-size:40px;color:black;}#my-svg .section-edge-3{stroke:hsl(300, 100%, 76.2745098039%);}#my-svg .edge-depth-3{stroke-width:5;}#my-svg .section-3 line{stroke:hsl(120, 100%, 86.2745098039%);stroke-width:3;}#my-svg .lineWrapper line{stroke:black;}#my-svg .disabled,#my-svg .disabled circle,#my-svg .disabled text{fill:hsl(80, 100%, 96.2745098039%);}#my-svg .disabled text{fill:#aaaa33;}#my-svg .section-4 rect,#my-svg .section-4 path,#my-svg .section-4 circle,#my-svg .section-4 path{fill:hsl(330, 100%, 76.2745098039%);}#my-svg .section-4 text{fill:black;}#my-svg .node-icon-4{font-size:40px;color:black;}#my-svg .section-edge-4{stroke:hsl(330, 100%, 76.2745098039%);}#my-svg .edge-depth-4{stroke-width:2;}#my-svg .section-4 line{stroke:hsl(150, 100%, 86.2745098039%);stroke-width:3;}#my-svg .lineWrapper line{stroke:black;}#my-svg .disabled,#my-svg .disabled circle,#my-svg .disabled text{fill:hsl(80, 100%, 96.2745098039%);}#my-svg .disabled text{fill:#aaaa33;}#my-svg .section-5 rect,#my-svg .section-5 path,#my-svg .section-5 circle,#my-svg .section-5 path{fill:hsl(0, 100%, 76.2745098039%);}#my-svg .section-5 text{fill:black;}#my-svg .node-icon-5{font-size:40px;color:black;}#my-svg .section-edge-5{stroke:hsl(0, 100%, 76.2745098039%);}#my-svg .edge-depth-5{stroke-width:-1;}#my-svg .section-5 line{stroke:hsl(180, 100%, 86.2745098039%);stroke-width:3;}#my-svg .lineWrapper line{stroke:black;}#my-svg .disabled,#my-svg .disabled circle,#my-svg .disabled text{fill:hsl(80, 100%, 96.2745098039%);}#my-svg .disabled text{fill:#aaaa33;}#my-svg .section-6 rect,#my-svg .section-6 path,#my-svg .section-6 circle,#my-svg .section-6 path{fill:hsl(30, 100%, 76.2745098039%);}#my-svg .section-6 text{fill:black;}#my-svg .node-icon-6{font-size:40px;color:black;}#my-svg .section-edge-6{stroke:hsl(30, 100%, 76.2745098039%);}#my-svg .edge-depth-6{stroke-width:-4;}#my-svg .section-6 line{stroke:hsl(210, 100%, 86.2745098039%);stroke-width:3;}#my-svg .lineWrapper line{stroke:black;}#my-svg .disabled,#my-svg .disabled circle,#my-svg .disabled text{fill:hsl(80, 100%, 96.2745098039%);}#my-svg .disabled text{fill:#aaaa33;}#my-svg .section-7 rect,#my-svg .section-7 path,#my-svg .section-7 circle,#my-svg .section-7 path{fill:hsl(90, 100%, 76.2745098039%);}#my-svg .section-7 text{fill:black;}#my-svg .node-icon-7{font-size:40px;color:black;}#my-svg .section-edge-7{stroke:hsl(90, 100%, 76.2745098039%);}#my-svg .edge-depth-7{stroke-width:-7;}#my-svg .section-7 line{stroke:hsl(270, 100%, 86.2745098039%);stroke-width:3;}#my-svg .lineWrapper line{stroke:black;}#my-svg .disabled,#my-svg .disabled circle,#my-svg .disabled text{fill:hsl(80, 100%, 96.2745098039%);}#my-svg .disabled text{fill:#aaaa33;}#my-svg .section-8 rect,#my-svg .section-8 path,#my-svg .section-8 circle,#my-svg .section-8 path{fill:hsl(150, 100%, 76.2745098039%);}#my-svg .section-8 text{fill:black;}#my-svg .node-icon-8{font-size:40px;color:black;}#my-svg .section-edge-8{stroke:hsl(150, 100%, 76.2745098039%);}#my-svg .edge-depth-8{stroke-width:-10;}#my-svg .section-8 line{stroke:hsl(330, 100%, 86.2745098039%);stroke-width:3;}#my-svg .lineWrapper line{stroke:black;}#my-svg .disabled,#my-svg .disabled circle,#my-svg .disabled text{fill:hsl(80, 100%, 96.2745098039%);}#my-svg .disabled text{fill:#aaaa33;}#my-svg .section-9 rect,#my-svg .section-9 path,#my-svg .section-9 circle,#my-svg .section-9 path{fill:hsl(180, 100%, 76.2745098039%);}#my-svg .section-9 text{fill:black;}#my-svg .node-icon-9{font-size:40px;color:black;}#my-svg .section-edge-9{stroke:hsl(180, 100%, 76.2745098039%);}#my-svg .edge-depth-9{stroke-width:-13;}#my-svg .section-9 line{stroke:hsl(0, 100%, 86.2745098039%);stroke-width:3;}#my-svg .lineWrapper line{stroke:black;}#my-svg .disabled,#my-svg .disabled circle,#my-svg .disabled text{fill:hsl(80, 100%, 96.2745098039%);}#my-svg .disabled text{fill:#aaaa33;}#my-svg .section-10 rect,#my-svg .section-10 path,#my-svg .section-10 circle,#my-svg .section-10 path{fill:hsl(210, 100%, 76.2745098039%);}#my-svg .section-10 text{fill:black;}#my-svg .node-icon-10{font-size:40px;color:black;}#my-svg .section-edge-10{stroke:hsl(210, 100%, 76.2745098039%);}#my-svg .edge-depth-10{stroke-width:-16;}#my-svg .section-10 line{stroke:hsl(30, 100%, 86.2745098039%);stroke-width:3;}#my-svg .lineWrapper line{stroke:black;}#my-svg .disabled,#my-svg .disabled circle,#my-svg .disabled text{fill:hsl(80, 100%, 96.2745098039%);}#my-svg .disabled text{fill:#aaaa33;}#my-svg .section-root rect,#my-svg .section-root path,#my-svg .section-root circle{fill:hsl(240, 100%, 46.2745098039%);}#my-svg .section-root text{fill:#ffffff;}#my-svg .icon-container{height:100%;display:flex;justify-content:center;align-items:center;}#my-svg .edge{fill:none;}#my-svg .eventWrapper{filter:brightness(120%);}#my-svg .node .neo-node{stroke:#9370DB;}#my-svg [data-look="neo"].node rect,#my-svg [data-look="neo"].cluster rect,#my-svg [data-look="neo"].node polygon{stroke:#9370DB;filter:drop-shadow(1px 2px 2px rgba(185, 185, 185, 1));}#my-svg [data-look="neo"].node path{stroke:#9370DB;stroke-width:1px;}#my-svg [data-look="neo"].node .outer-path{filter:drop-shadow(1px 2px 2px rgba(185, 185, 185, 1));}#my-svg [data-look="neo"].node .neo-line path{stroke:#9370DB;filter:none;}#my-svg [data-look="neo"].node circle{stroke:#9370DB;filter:drop-shadow(1px 2px 2px rgba(185, 185, 185, 1));}#my-svg [data-look="neo"].node circle .state-start{fill:#000000;}#my-svg [data-look="neo"].icon-shape .icon{fill:#9370DB;filter:drop-shadow(1px 2px 2px rgba(185, 185, 185, 1));}#my-svg [data-look="neo"].icon-shape .icon-neo path{stroke:#9370DB;filter:drop-shadow(1px 2px 2px rgba(185, 185, 185, 1));}#my-svg :root{--mermaid-font-family:"trebuchet ms",verdana,arial,sans-serif;}</style><g/><g/><defs><marker id="my-svg-arrowhead" refX="5" refY="2" markerWidth="6" markerHeight="4" orient="auto"><path d="M 0,0 V 4 L6,2 Z"/></marker></defs><g transform="translate(200, 50)"><g class="timeline-node section--1"><g><path id="my-svg-node-0" class="node-bkg node-undefined" d="M0 60.815625 v-55.815625 q0,-5,5,-5 h380 q5,0,5,5 v60.815625 H0 Z"/><line class="node-line--1" x1="0" y1="65.815625" x2="390" y2="65.815625"/></g><g transform="translate(195, 10)"><text dy="1em" alignment-baseline="middle" dominant-baseline="middle" text-anchor="middle"><tspan x="0" dy="1em">1989</tspan></text></g></g></g><g class="taskWrapper" transform="translate(200, 165.815625)"><g class="timeline-node section--1"><g><path id="my-svg-node-1" class="node-bkg node-undefined" d="M0 93.61562042236328 v-88.61562042236328 q0,-5,5,-5 h180 q5,0,5,5 v93.61562042236328 H0 Z"/><line class="node-line--1" x1="0" y1="98.61562042236328" x2="190" y2="98.61562042236328"/></g><g transform="translate(95, 10)"><text dy="1em" alignment-baseline="middle" dominant-baseline="middle" text-anchor="middle"><tspan x="0" dy="1em">Lazar   KLAS   TV</tspan><tspan x="0" dy="1.1em">interview   /</tspan><tspan x="0" dy="1.1em">Интервью   Лазара</tspan><tspan x="0" dy="1.1em">на   KLAS   TV</tspan></text></g></g></g><g class="lineWrapper"><line x1="295" y1="264.4312454223633" x2="295" y2="706.8624832153321" stroke-width="2" stroke="black" marker-end="url(#my-svg-arrowhead)" stroke-dasharray="5,5"/></g><g class="eventWrapper" transform="translate(200, 365.815625)"><g class="timeline-node section--1"><g><path id="my-svg-node-2" class="node-bkg node-undefined" d="M0 76.01562194824218 v-71.01562194824218 q0,-5,5,-5 h180 q5,0,5,5 v76.01562194824218 H0 Z"/><line class="node-line--1" x1="0" y1="81.01562194824218" x2="190" y2="81.01562194824218"/></g><g transform="translate(95, 10)"><text dy="1em" alignment-baseline="middle" dominant-baseline="middle" text-anchor="middle"><tspan x="0" dy="1em">First   public   claim   of</tspan><tspan x="0" dy="1.1em">element   115   as   S-4</tspan><tspan x="0" dy="1.1em">craft   fuel</tspan></text></g></g></g><g class="eventWrapper" transform="translate(200, 456.8312469482422)"><g class="timeline-node section--1"><g><path id="my-svg-node-3" class="node-bkg node-undefined" d="M0 111.21561889648437 v-106.21561889648437 q0,-5,5,-5 h180 q5,0,5,5 v111.21561889648437 H0 Z"/><line class="node-line--1" x1="0" y1="116.21561889648437" x2="190" y2="116.21561889648437"/></g><g transform="translate(95, 10)"><text dy="1em" alignment-baseline="middle" dominant-baseline="middle" text-anchor="middle"><tspan x="0" dy="1em">Первое   публичное</tspan><tspan x="0" dy="1.1em">заявление   об</tspan><tspan x="0" dy="1.1em">элементе   115   как</tspan><tspan x="0" dy="1.1em">топливе   аппаратов</tspan><tspan x="0" dy="1.1em">из   S-4</tspan></text></g></g></g><g class="taskWrapper" transform="translate(400, 165.815625)"><g class="timeline-node section--1"><g><path id="my-svg-node-4" class="node-bkg node-undefined" d="M0 93.61562042236328 v-88.61562042236328 q0,-5,5,-5 h180 q5,0,5,5 v93.61562042236328 H0 Z"/><line class="node-line--1" x1="0" y1="98.61562042236328" x2="190" y2="98.61562042236328"/></g><g transform="translate(95, 10)"><text dy="1em" alignment-baseline="middle" dominant-baseline="middle" text-anchor="middle"><tspan x="0" dy="1em">IUPAC   placeholder</tspan><tspan x="0" dy="1.1em">name   /</tspan><tspan x="0" dy="1.1em">Плейсхолдер</tspan><tspan x="0" dy="1.1em">IUPAC</tspan></text></g></g></g><g class="lineWrapper"><line x1="495" y1="264.4312454223633" x2="495" y2="706.8624832153321" stroke-width="2" stroke="black" marker-end="url(#my-svg-arrowhead)" stroke-dasharray="5,5"/></g><g class="eventWrapper" transform="translate(400, 365.815625)"><g class="timeline-node section--1"><g><path id="my-svg-node-5" class="node-bkg node-undefined" d="M0 76.01562194824218 v-71.01562194824218 q0,-5,5,-5 h180 q5,0,5,5 v76.01562194824218 H0 Z"/><line class="node-line--1" x1="0" y1="81.01562194824218" x2="190" y2="81.01562194824218"/></g><g transform="translate(95, 10)"><text dy="1em" alignment-baseline="middle" dominant-baseline="middle" text-anchor="middle"><tspan x="0" dy="1em">Element   115</tspan><tspan x="0" dy="1.1em">designated</tspan><tspan x="0" dy="1.1em">Ununpentium   (Uup)</tspan></text></g></g></g><g class="eventWrapper" transform="translate(400, 456.8312469482422)"><g class="timeline-node section--1"><g><path id="my-svg-node-6" class="node-bkg node-undefined" d="M0 93.61562042236328 v-88.61562042236328 q0,-5,5,-5 h180 q5,0,5,5 v93.61562042236328 H0 Z"/><line class="node-line--1" x1="0" y1="98.61562042236328" x2="190" y2="98.61562042236328"/></g><g transform="translate(95, 10)"><text dy="1em" alignment-baseline="middle" dominant-baseline="middle" text-anchor="middle"><tspan x="0" dy="1em">Элементу   115</tspan><tspan x="0" dy="1.1em">присвоено</tspan><tspan x="0" dy="1.1em">временное   имя</tspan><tspan x="0" dy="1.1em">Ununpentium   (Uup)</tspan></text></g></g></g><g transform="translate(600, 50)"><g class="timeline-node section-0"><g><path id="my-svg-node-7" class="node-bkg node-undefined" d="M0 60.815625 v-55.815625 q0,-5,5,-5 h380 q5,0,5,5 v60.815625 H0 Z"/><line class="node-line-0" x1="0" y1="65.815625" x2="390" y2="65.815625"/></g><g transform="translate(195, 10)"><text dy="1em" alignment-baseline="middle" dominant-baseline="middle" text-anchor="middle"><tspan x="0" dy="1em">1990s</tspan></text></g></g></g><g class="taskWrapper" transform="translate(600, 165.815625)"><g class="timeline-node section-0"><g><path id="my-svg-node-8" class="node-bkg node-undefined" d="M0 93.61562042236328 v-88.61562042236328 q0,-5,5,-5 h180 q5,0,5,5 v93.61562042236328 H0 Z"/><line class="node-line-0" x1="0" y1="98.61562042236328" x2="190" y2="98.61562042236328"/></g><g transform="translate(95, 10)"><text dy="1em" alignment-baseline="middle" dominant-baseline="middle" text-anchor="middle"><tspan x="0" dy="1em">Dubna   preparatory</tspan><tspan x="0" dy="1.1em">work   /</tspan><tspan x="0" dy="1.1em">Подготовительные</tspan><tspan x="0" dy="1.1em">работы   в   Дубне</tspan></text></g></g></g><g class="lineWrapper"><line x1="695" y1="264.4312454223633" x2="695" y2="706.8624832153321" stroke-width="2" stroke="black" marker-end="url(#my-svg-arrowhead)" stroke-dasharray="5,5"/></g><g class="eventWrapper" transform="translate(600, 365.815625)"><g class="timeline-node section-0"><g><path id="my-svg-node-9" class="node-bkg node-undefined" d="M0 93.61562042236328 v-88.61562042236328 q0,-5,5,-5 h180 q5,0,5,5 v93.61562042236328 H0 Z"/><line class="node-line-0" x1="0" y1="98.61562042236328" x2="190" y2="98.61562042236328"/></g><g transform="translate(95, 10)"><text dy="1em" alignment-baseline="middle" dominant-baseline="middle" text-anchor="middle"><tspan x="0" dy="1em">Flerov   Lab   refines</tspan><tspan x="0" dy="1.1em">cold-fusion   and</tspan><tspan x="0" dy="1.1em">hot-fusion   target</tspan><tspan x="0" dy="1.1em">pathways</tspan></text></g></g></g><g class="eventWrapper" transform="translate(600, 474.4312454223633)"><g class="timeline-node section-0"><g><path id="my-svg-node-10" class="node-bkg node-undefined" d="M0 93.61562042236328 v-88.61562042236328 q0,-5,5,-5 h180 q5,0,5,5 v93.61562042236328 H0 Z"/><line class="node-line-0" x1="0" y1="98.61562042236328" x2="190" y2="98.61562042236328"/></g><g transform="translate(95, 10)"><text dy="1em" alignment-baseline="middle" dominant-baseline="middle" text-anchor="middle"><tspan x="0" dy="1em">ЛЯР   Флёрова</tspan><tspan x="0" dy="1.1em">отрабатывает   пути</tspan><tspan x="0" dy="1.1em">холодного   и</tspan><tspan x="0" dy="1.1em">горячего   синтеза</tspan></text></g></g></g><g class="taskWrapper" transform="translate(800, 165.815625)"><g class="timeline-node section-0"><g><path id="my-svg-node-11" class="node-bkg node-undefined" d="M0 93.61562042236328 v-88.61562042236328 q0,-5,5,-5 h180 q5,0,5,5 v93.61562042236328 H0 Z"/><line class="node-line-0" x1="0" y1="98.61562042236328" x2="190" y2="98.61562042236328"/></g><g transform="translate(95, 10)"><text dy="1em" alignment-baseline="middle" dominant-baseline="middle" text-anchor="middle"><tspan x="0" dy="1em">²⁴³Am   target</tspan><tspan x="0" dy="1.1em">preparation   /</tspan><tspan x="0" dy="1.1em">Подготовка</tspan><tspan x="0" dy="1.1em">²⁴³Am-мишеней</tspan></text></g></g></g><g class="lineWrapper"><line x1="895" y1="264.4312454223633" x2="895" y2="706.8624832153321" stroke-width="2" stroke="black" marker-end="url(#my-svg-arrowhead)" stroke-dasharray="5,5"/></g><g class="eventWrapper" transform="translate(800, 365.815625)"><g class="timeline-node section-0"><g><path id="my-svg-node-12" class="node-bkg node-undefined" d="M0 93.61562042236328 v-88.61562042236328 q0,-5,5,-5 h180 q5,0,5,5 v93.61562042236328 H0 Z"/><line class="node-line-0" x1="0" y1="98.61562042236328" x2="190" y2="98.61562042236328"/></g><g transform="translate(95, 10)"><text dy="1em" alignment-baseline="middle" dominant-baseline="middle" text-anchor="middle"><tspan x="0" dy="1em">LLNL   legacy</tspan><tspan x="0" dy="1.1em">americium   stockpile</tspan><tspan x="0" dy="1.1em">earmarked   for</tspan><tspan x="0" dy="1.1em">Dubna   experiment</tspan></text></g></g></g><g class="eventWrapper" transform="translate(800, 474.4312454223633)"><g class="timeline-node section-0"><g><path id="my-svg-node-13" class="node-bkg node-undefined" d="M0 111.21561889648437 v-106.21561889648437 q0,-5,5,-5 h180 q5,0,5,5 v111.21561889648437 H0 Z"/><line class="node-line-0" x1="0" y1="116.21561889648437" x2="190" y2="116.21561889648437"/></g><g transform="translate(95, 10)"><text dy="1em" alignment-baseline="middle" dominant-baseline="middle" text-anchor="middle"><tspan x="0" dy="1em">Американиевый</tspan><tspan x="0" dy="1.1em">задел   LLNL</tspan><tspan x="0" dy="1.1em">зарезервирован</tspan><tspan x="0" dy="1.1em">под   эксперимент   в</tspan><tspan x="0" dy="1.1em">Дубне</tspan></text></g></g></g><g transform="translate(1000, 50)"><g class="timeline-node section-1"><g><path id="my-svg-node-14" class="node-bkg node-undefined" d="M0 60.815625 v-55.815625 q0,-5,5,-5 h180 q5,0,5,5 v60.815625 H0 Z"/><line class="node-line-1" x1="0" y1="65.815625" x2="190" y2="65.815625"/></g><g transform="translate(95, 10)"><text dy="1em" alignment-baseline="middle" dominant-baseline="middle" text-anchor="middle"><tspan x="0" dy="1em">2003</tspan></text></g></g></g><g class="taskWrapper" transform="translate(1000, 165.815625)"><g class="timeline-node section-1"><g><path id="my-svg-node-15" class="node-bkg node-undefined" d="M0 111.21561889648437 v-106.21561889648437 q0,-5,5,-5 h180 q5,0,5,5 v111.21561889648437 H0 Z"/><line class="node-line-1" x1="0" y1="116.21561889648437" x2="190" y2="116.21561889648437"/></g><g transform="translate(95, 10)"><text dy="1em" alignment-baseline="middle" dominant-baseline="middle" text-anchor="middle"><tspan x="0" dy="1em">Dubna   +   LLNL</tspan><tspan x="0" dy="1.1em">synthesize   element</tspan><tspan x="0" dy="1.1em">115   /   Дубна   +   LLNL</tspan><tspan x="0" dy="1.1em">синтезируют</tspan><tspan x="0" dy="1.1em">элемент   115</tspan></text></g></g></g><g class="lineWrapper"><line x1="1095" y1="282.0312438964844" x2="1095" y2="724.4624816894532" stroke-width="2" stroke="black" marker-end="url(#my-svg-arrowhead)" stroke-dasharray="5,5"/></g><g class="eventWrapper" transform="translate(1000, 365.815625)"><g class="timeline-node section-1"><g><path id="my-svg-node-16" class="node-bkg node-undefined" d="M0 93.61562042236328 v-88.61562042236328 q0,-5,5,-5 h180 q5,0,5,5 v93.61562042236328 H0 Z"/><line class="node-line-1" x1="0" y1="98.61562042236328" x2="190" y2="98.61562042236328"/></g><g transform="translate(95, 10)"><text dy="1em" alignment-baseline="middle" dominant-baseline="middle" text-anchor="middle"><tspan x="0" dy="1em">U-400   cyclotron</tspan><tspan x="0" dy="1.1em">reaction</tspan><tspan x="0" dy="1.1em">²⁴³Am(⁴⁸Ca,xn)²⁹¹⁻ˣ</tspan><tspan x="0" dy="1.1em">Mc</tspan></text></g></g></g><g class="eventWrapper" transform="translate(1000, 474.4312454223633)"><g class="timeline-node section-1"><g><path id="my-svg-node-17" class="node-bkg node-undefined" d="M0 93.61562042236328 v-88.61562042236328 q0,-5,5,-5 h180 q5,0,5,5 v93.61562042236328 H0 Z"/><line class="node-line-1" x1="0" y1="98.61562042236328" x2="190" y2="98.61562042236328"/></g><g transform="translate(95, 10)"><text dy="1em" alignment-baseline="middle" dominant-baseline="middle" text-anchor="middle"><tspan x="0" dy="1em">Реакция   на</tspan><tspan x="0" dy="1.1em">циклотроне   У-400</tspan><tspan x="0" dy="1.1em">²⁴³Am(⁴⁸Ca,xn)²⁹¹⁻ˣ</tspan><tspan x="0" dy="1.1em">Mc</tspan></text></g></g></g><g transform="translate(1200, 50)"><g class="timeline-node section-2"><g><path id="my-svg-node-18" class="node-bkg node-undefined" d="M0 60.815625 v-55.815625 q0,-5,5,-5 h180 q5,0,5,5 v60.815625 H0 Z"/><line class="node-line-2" x1="0" y1="65.815625" x2="190" y2="65.815625"/></g><g transform="translate(95, 10)"><text dy="1em" alignment-baseline="middle" dominant-baseline="middle" text-anchor="middle"><tspan x="0" dy="1em">2004</tspan></text></g></g></g><g class="taskWrapper" transform="translate(1200, 165.815625)"><g class="timeline-node section-2"><g><path id="my-svg-node-19" class="node-bkg node-undefined" d="M0 128.81561737060548 v-123.81561737060548 q0,-5,5,-5 h180 q5,0,5,5 v128.81561737060548 H0 Z"/><line class="node-line-2" x1="0" y1="133.81561737060548" x2="190" y2="133.81561737060548"/></g><g transform="translate(95, 10)"><text dy="1em" alignment-baseline="middle" dominant-baseline="middle" text-anchor="middle"><tspan x="0" dy="1em">Phys.   Rev.   C   69,</tspan><tspan x="0" dy="1.1em">021601(R)</tspan><tspan x="0" dy="1.1em">publication   /</tspan><tspan x="0" dy="1.1em">Публикация   в   Phys.</tspan><tspan x="0" dy="1.1em">Rev.   C   69,</tspan><tspan x="0" dy="1.1em">021601(R)</tspan></text></g></g></g><g class="lineWrapper"><line x1="1295" y1="299.6312423706055" x2="1295" y2="742.0624801635743" stroke-width="2" stroke="black" marker-end="url(#my-svg-arrowhead)" stroke-dasharray="5,5"/></g><g class="eventWrapper" transform="translate(1200, 365.815625)"><g class="timeline-node section-2"><g><path id="my-svg-node-20" class="node-bkg node-undefined" d="M0 93.61562042236328 v-88.61562042236328 q0,-5,5,-5 h180 q5,0,5,5 v93.61562042236328 H0 Z"/><line class="node-line-2" x1="0" y1="98.61562042236328" x2="190" y2="98.61562042236328"/></g><g transform="translate(95, 10)"><text dy="1em" alignment-baseline="middle" dominant-baseline="middle" text-anchor="middle"><tspan x="0" dy="1em">Oganessian   et   al.</tspan><tspan x="0" dy="1.1em">announce   Z=115   —</tspan><tspan x="0" dy="1.1em">4   atoms   of</tspan><tspan x="0" dy="1.1em">moscovium</tspan></text></g></g></g><g class="eventWrapper" transform="translate(1200, 474.4312454223633)"><g class="timeline-node section-2"><g><path id="my-svg-node-21" class="node-bkg node-undefined" d="M0 111.21561889648437 v-106.21561889648437 q0,-5,5,-5 h180 q5,0,5,5 v111.21561889648437 H0 Z"/><line class="node-line-2" x1="0" y1="116.21561889648437" x2="190" y2="116.21561889648437"/></g><g transform="translate(95, 10)"><text dy="1em" alignment-baseline="middle" dominant-baseline="middle" text-anchor="middle"><tspan x="0" dy="1em">Оганесян   и   др.</tspan><tspan x="0" dy="1.1em">сообщают   о</tspan><tspan x="0" dy="1.1em">наблюдении   Z=115</tspan><tspan x="0" dy="1.1em">—   4   атома</tspan><tspan x="0" dy="1.1em">московия</tspan></text></g></g></g><g transform="translate(1400, 50)"><g class="timeline-node section-3"><g><path id="my-svg-node-22" class="node-bkg node-undefined" d="M0 60.815625 v-55.815625 q0,-5,5,-5 h180 q5,0,5,5 v60.815625 H0 Z"/><line class="node-line-3" x1="0" y1="65.815625" x2="190" y2="65.815625"/></g><g transform="translate(95, 10)"><text dy="1em" alignment-baseline="middle" dominant-baseline="middle" text-anchor="middle"><tspan x="0" dy="1em">2011</tspan></text></g></g></g><g class="taskWrapper" transform="translate(1400, 165.815625)"><g class="timeline-node section-3"><g><path id="my-svg-node-23" class="node-bkg node-undefined" d="M0 111.21561889648437 v-106.21561889648437 q0,-5,5,-5 h180 q5,0,5,5 v111.21561889648437 H0 Z"/><line class="node-line-3" x1="0" y1="116.21561889648437" x2="190" y2="116.21561889648437"/></g><g transform="translate(95, 10)"><text dy="1em" alignment-baseline="middle" dominant-baseline="middle" text-anchor="middle"><tspan x="0" dy="1em">IUPAC/IUPAP</tspan><tspan x="0" dy="1.1em">declines   first   priority</tspan><tspan x="0" dy="1.1em">claim   /   IUPAC/IUPAP</tspan><tspan x="0" dy="1.1em">отказывает   в</tspan><tspan x="0" dy="1.1em">первом   приоритете</tspan></text></g></g></g><g class="lineWrapper"><line x1="1495" y1="282.0312438964844" x2="1495" y2="724.4624816894532" stroke-width="2" stroke="black" marker-end="url(#my-svg-arrowhead)" stroke-dasharray="5,5"/></g><g class="eventWrapper" transform="translate(1400, 365.815625)"><g class="timeline-node section-3"><g><path id="my-svg-node-24" class="node-bkg node-undefined" d="M0 76.01562194824218 v-71.01562194824218 q0,-5,5,-5 h180 q5,0,5,5 v76.01562194824218 H0 Z"/><line class="node-line-3" x1="0" y1="81.01562194824218" x2="190" y2="81.01562194824218"/></g><g transform="translate(95, 10)"><text dy="1em" alignment-baseline="middle" dominant-baseline="middle" text-anchor="middle"><tspan x="0" dy="1em">Joint   Working   Party</tspan><tspan x="0" dy="1.1em">requires   further</tspan><tspan x="0" dy="1.1em">confirmation</tspan></text></g></g></g><g class="eventWrapper" transform="translate(1400, 456.8312469482422)"><g class="timeline-node section-3"><g><path id="my-svg-node-25" class="node-bkg node-undefined" d="M0 76.01562194824218 v-71.01562194824218 q0,-5,5,-5 h180 q5,0,5,5 v76.01562194824218 H0 Z"/><line class="node-line-3" x1="0" y1="81.01562194824218" x2="190" y2="81.01562194824218"/></g><g transform="translate(95, 10)"><text dy="1em" alignment-baseline="middle" dominant-baseline="middle" text-anchor="middle"><tspan x="0" dy="1em">СРГ   требует</tspan><tspan x="0" dy="1.1em">дополнительного</tspan><tspan x="0" dy="1.1em">подтверждения</tspan></text></g></g></g><g transform="translate(1600, 50)"><g class="timeline-node section-4"><g><path id="my-svg-node-26" class="node-bkg node-undefined" d="M0 60.815625 v-55.815625 q0,-5,5,-5 h180 q5,0,5,5 v60.815625 H0 Z"/><line class="node-line-4" x1="0" y1="65.815625" x2="190" y2="65.815625"/></g><g transform="translate(95, 10)"><text dy="1em" alignment-baseline="middle" dominant-baseline="middle" text-anchor="middle"><tspan x="0" dy="1em">Aug   2013</tspan></text></g></g></g><g class="taskWrapper" transform="translate(1600, 165.815625)"><g class="timeline-node section-4"><g><path id="my-svg-node-27" class="node-bkg node-undefined" d="M0 111.21561889648437 v-106.21561889648437 q0,-5,5,-5 h180 q5,0,5,5 v111.21561889648437 H0 Z"/><line class="node-line-4" x1="0" y1="116.21561889648437" x2="190" y2="116.21561889648437"/></g><g transform="translate(95, 10)"><text dy="1em" alignment-baseline="middle" dominant-baseline="middle" text-anchor="middle"><tspan x="0" dy="1em">GSI   Darmstadt   +</tspan><tspan x="0" dy="1.1em">Lund   confirmation   /</tspan><tspan x="0" dy="1.1em">Подтверждение   в</tspan><tspan x="0" dy="1.1em">GSI   Дармштадт   +</tspan><tspan x="0" dy="1.1em">Лунд</tspan></text></g></g></g><g class="lineWrapper"><line x1="1695" y1="282.0312438964844" x2="1695" y2="724.4624816894532" stroke-width="2" stroke="black" marker-end="url(#my-svg-arrowhead)" stroke-dasharray="5,5"/></g><g class="eventWrapper" transform="translate(1600, 365.815625)"><g class="timeline-node section-4"><g><path id="my-svg-node-28" class="node-bkg node-undefined" d="M0 111.21561889648437 v-106.21561889648437 q0,-5,5,-5 h180 q5,0,5,5 v111.21561889648437 H0 Z"/><line class="node-line-4" x1="0" y1="116.21561889648437" x2="190" y2="116.21561889648437"/></g><g transform="translate(95, 10)"><text dy="1em" alignment-baseline="middle" dominant-baseline="middle" text-anchor="middle"><tspan x="0" dy="1em">Independent</tspan><tspan x="0" dy="1.1em">replication   of</tspan><tspan x="0" dy="1.1em">element   115   /   4</tspan><tspan x="0" dy="1.1em">atoms   in</tspan><tspan x="0" dy="1.1em">cross-bombardment</tspan></text></g></g></g><g class="eventWrapper" transform="translate(1600, 492.0312438964844)"><g class="timeline-node section-4"><g><path id="my-svg-node-29" class="node-bkg node-undefined" d="M0 111.21561889648437 v-106.21561889648437 q0,-5,5,-5 h180 q5,0,5,5 v111.21561889648437 H0 Z"/><line class="node-line-4" x1="0" y1="116.21561889648437" x2="190" y2="116.21561889648437"/></g><g transform="translate(95, 10)"><text dy="1em" alignment-baseline="middle" dominant-baseline="middle" text-anchor="middle"><tspan x="0" dy="1em">Независимая</tspan><tspan x="0" dy="1.1em">репликация   115</tspan><tspan x="0" dy="1.1em">элемента   /   4   атома</tspan><tspan x="0" dy="1.1em">в</tspan><tspan x="0" dy="1.1em">кросс-бомбардировке</tspan></text></g></g></g><g transform="translate(1800, 50)"><g class="timeline-node section-5"><g><path id="my-svg-node-30" class="node-bkg node-undefined" d="M0 60.815625 v-55.815625 q0,-5,5,-5 h180 q5,0,5,5 v60.815625 H0 Z"/><line class="node-line-5" x1="0" y1="65.815625" x2="190" y2="65.815625"/></g><g transform="translate(95, 10)"><text dy="1em" alignment-baseline="middle" dominant-baseline="middle" text-anchor="middle"><tspan x="0" dy="1em">2016</tspan></text></g></g></g><g class="taskWrapper" transform="translate(1800, 165.815625)"><g class="timeline-node section-5"><g><path id="my-svg-node-31" class="node-bkg node-undefined" d="M0 93.61562042236328 v-88.61562042236328 q0,-5,5,-5 h180 q5,0,5,5 v93.61562042236328 H0 Z"/><line class="node-line-5" x1="0" y1="98.61562042236328" x2="190" y2="98.61562042236328"/></g><g transform="translate(95, 10)"><text dy="1em" alignment-baseline="middle" dominant-baseline="middle" text-anchor="middle"><tspan x="0" dy="1em">IUPAC   approves</tspan><tspan x="0" dy="1.1em">naming   /   IUPAC</tspan><tspan x="0" dy="1.1em">утверждает</tspan><tspan x="0" dy="1.1em">названия</tspan></text></g></g></g><g class="lineWrapper"><line x1="1895" y1="264.4312454223633" x2="1895" y2="706.8624832153321" stroke-width="2" stroke="black" marker-end="url(#my-svg-arrowhead)" stroke-dasharray="5,5"/></g><g class="eventWrapper" transform="translate(1800, 365.815625)"><g class="timeline-node section-5"><g><path id="my-svg-node-32" class="node-bkg node-undefined" d="M0 111.21561889648437 v-106.21561889648437 q0,-5,5,-5 h180 q5,0,5,5 v111.21561889648437 H0 Z"/><line class="node-line-5" x1="0" y1="116.21561889648437" x2="190" y2="116.21561889648437"/></g><g transform="translate(95, 10)"><text dy="1em" alignment-baseline="middle" dominant-baseline="middle" text-anchor="middle"><tspan x="0" dy="1em">Element   115   →</tspan><tspan x="0" dy="1.1em">Moscovium   (Mc)   /</tspan><tspan x="0" dy="1.1em">114   →   Flerovium   (Fl)</tspan><tspan x="0" dy="1.1em">/   118   →   Oganesson</tspan><tspan x="0" dy="1.1em">(Og)</tspan></text></g></g></g><g class="eventWrapper" transform="translate(1800, 492.0312438964844)"><g class="timeline-node section-5"><g><path id="my-svg-node-33" class="node-bkg node-undefined" d="M0 111.21561889648437 v-106.21561889648437 q0,-5,5,-5 h180 q5,0,5,5 v111.21561889648437 H0 Z"/><line class="node-line-5" x1="0" y1="116.21561889648437" x2="190" y2="116.21561889648437"/></g><g transform="translate(95, 10)"><text dy="1em" alignment-baseline="middle" dominant-baseline="middle" text-anchor="middle"><tspan x="0" dy="1em">Элемент   115   →</tspan><tspan x="0" dy="1.1em">Московий   (Mc)   /   114</tspan><tspan x="0" dy="1.1em">→   Флеровий   (Fl)   /</tspan><tspan x="0" dy="1.1em">118   →   Оганесон</tspan><tspan x="0" dy="1.1em">(Og)</tspan></text></g></g></g><g transform="translate(2000, 50)"><g class="timeline-node section-6"><g><path id="my-svg-node-34" class="node-bkg node-undefined" d="M0 60.815625 v-55.815625 q0,-5,5,-5 h180 q5,0,5,5 v60.815625 H0 Z"/><line class="node-line-6" x1="0" y1="65.815625" x2="190" y2="65.815625"/></g><g transform="translate(95, 10)"><text dy="1em" alignment-baseline="middle" dominant-baseline="middle" text-anchor="middle"><tspan x="0" dy="1em">2019</tspan></text></g></g></g><g class="taskWrapper" transform="translate(2000, 165.815625)"><g class="timeline-node section-6"><g><path id="my-svg-node-35" class="node-bkg node-undefined" d="M0 111.21561889648437 v-106.21561889648437 q0,-5,5,-5 h180 q5,0,5,5 v111.21561889648437 H0 Z"/><line class="node-line-6" x1="0" y1="116.21561889648437" x2="190" y2="116.21561889648437"/></g><g transform="translate(95, 10)"><text dy="1em" alignment-baseline="middle" dominant-baseline="middle" text-anchor="middle"><tspan x="0" dy="1em">Lazar   stable-isotope</tspan><tspan x="0" dy="1.1em">framing   /   Подача</tspan><tspan x="0" dy="1.1em">Лазара   о</tspan><tspan x="0" dy="1.1em">стабильном</tspan><tspan x="0" dy="1.1em">изотопе</tspan></text></g></g></g><g class="lineWrapper"><line x1="2095" y1="282.0312438964844" x2="2095" y2="724.4624816894532" stroke-width="2" stroke="black" marker-end="url(#my-svg-arrowhead)" stroke-dasharray="5,5"/></g><g class="eventWrapper" transform="translate(2000, 365.815625)"><g class="timeline-node section-6"><g><path id="my-svg-node-36" class="node-bkg node-undefined" d="M0 111.21561889648437 v-106.21561889648437 q0,-5,5,-5 h180 q5,0,5,5 v111.21561889648437 H0 Z"/><line class="node-line-6" x1="0" y1="116.21561889648437" x2="190" y2="116.21561889648437"/></g><g transform="translate(95, 10)"><text dy="1em" alignment-baseline="middle" dominant-baseline="middle" text-anchor="middle"><tspan x="0" dy="1em">JRE   1315   podcast</tspan><tspan x="0" dy="1.1em">—   Lazar   shifts   to</tspan><tspan x="0" dy="1.1em">stable-isotope</tspan><tspan x="0" dy="1.1em">defense   of   original</tspan><tspan x="0" dy="1.1em">claim</tspan></text></g></g></g><g class="eventWrapper" transform="translate(2000, 492.0312438964844)"><g class="timeline-node section-6"><g><path id="my-svg-node-37" class="node-bkg node-undefined" d="M0 111.21561889648437 v-106.21561889648437 q0,-5,5,-5 h180 q5,0,5,5 v111.21561889648437 H0 Z"/><line class="node-line-6" x1="0" y1="116.21561889648437" x2="190" y2="116.21561889648437"/></g><g transform="translate(95, 10)"><text dy="1em" alignment-baseline="middle" dominant-baseline="middle" text-anchor="middle"><tspan x="0" dy="1em">В   подкасте   JRE</tspan><tspan x="0" dy="1.1em">1315   Лазар</tspan><tspan x="0" dy="1.1em">смещается   к</tspan><tspan x="0" dy="1.1em">защите   стаб.</tspan><tspan x="0" dy="1.1em">изотопа</tspan></text></g></g></g><g transform="translate(2200, 50)"><g class="timeline-node section-7"><g><path id="my-svg-node-38" class="node-bkg node-undefined" d="M0 60.815625 v-55.815625 q0,-5,5,-5 h180 q5,0,5,5 v60.815625 H0 Z"/><line class="node-line-7" x1="0" y1="65.815625" x2="190" y2="65.815625"/></g><g transform="translate(95, 10)"><text dy="1em" alignment-baseline="middle" dominant-baseline="middle" text-anchor="middle"><tspan x="0" dy="1em">2020</tspan></text></g></g></g><g class="taskWrapper" transform="translate(2200, 165.815625)"><g class="timeline-node section-7"><g><path id="my-svg-node-39" class="node-bkg node-undefined" d="M0 111.21561889648437 v-106.21561889648437 q0,-5,5,-5 h180 q5,0,5,5 v111.21561889648437 H0 Z"/><line class="node-line-7" x1="0" y1="116.21561889648437" x2="190" y2="116.21561889648437"/></g><g transform="translate(95, 10)"><text dy="1em" alignment-baseline="middle" dominant-baseline="middle" text-anchor="middle"><tspan x="0" dy="1em">Superheavy</tspan><tspan x="0" dy="1.1em">Elements   Factory</tspan><tspan x="0" dy="1.1em">launched   /   Фабрика</tspan><tspan x="0" dy="1.1em">сверхтяжёлых</tspan><tspan x="0" dy="1.1em">запущена</tspan></text></g></g></g><g class="lineWrapper"><line x1="2295" y1="282.0312438964844" x2="2295" y2="724.4624816894532" stroke-width="2" stroke="black" marker-end="url(#my-svg-arrowhead)" stroke-dasharray="5,5"/></g><g class="eventWrapper" transform="translate(2200, 365.815625)"><g class="timeline-node section-7"><g><path id="my-svg-node-40" class="node-bkg node-undefined" d="M0 93.61562042236328 v-88.61562042236328 q0,-5,5,-5 h180 q5,0,5,5 v93.61562042236328 H0 Z"/><line class="node-line-7" x1="0" y1="98.61562042236328" x2="190" y2="98.61562042236328"/></g><g transform="translate(95, 10)"><text dy="1em" alignment-baseline="middle" dominant-baseline="middle" text-anchor="middle"><tspan x="0" dy="1em">First   experiment</tspan><tspan x="0" dy="1.1em">November   2020   —</tspan><tspan x="0" dy="1.1em">70   atoms   Mc   /   40</tspan><tspan x="0" dy="1.1em">days</tspan></text></g></g></g><g class="eventWrapper" transform="translate(2200, 474.4312454223633)"><g class="timeline-node section-7"><g><path id="my-svg-node-41" class="node-bkg node-undefined" d="M0 111.21561889648437 v-106.21561889648437 q0,-5,5,-5 h180 q5,0,5,5 v111.21561889648437 H0 Z"/><line class="node-line-7" x1="0" y1="116.21561889648437" x2="190" y2="116.21561889648437"/></g><g transform="translate(95, 10)"><text dy="1em" alignment-baseline="middle" dominant-baseline="middle" text-anchor="middle"><tspan x="0" dy="1em">Первый</tspan><tspan x="0" dy="1.1em">эксперимент</tspan><tspan x="0" dy="1.1em">ноябрь   2020   —   70</tspan><tspan x="0" dy="1.1em">атомов   Mc   /   40</tspan><tspan x="0" dy="1.1em">дней</tspan></text></g></g></g><g transform="translate(2400, 50)"><g class="timeline-node section-8"><g><path id="my-svg-node-42" class="node-bkg node-undefined" d="M0 60.815625 v-55.815625 q0,-5,5,-5 h180 q5,0,5,5 v60.815625 H0 Z"/><line class="node-line-8" x1="0" y1="65.815625" x2="190" y2="65.815625"/></g><g transform="translate(95, 10)"><text dy="1em" alignment-baseline="middle" dominant-baseline="middle" text-anchor="middle"><tspan x="0" dy="1em">2021</tspan></text></g></g></g><g class="taskWrapper" transform="translate(2400, 165.815625)"><g class="timeline-node section-8"><g><path id="my-svg-node-43" class="node-bkg node-undefined" d="M0 111.21561889648437 v-106.21561889648437 q0,-5,5,-5 h180 q5,0,5,5 v111.21561889648437 H0 Z"/><line class="node-line-8" x1="0" y1="116.21561889648437" x2="190" y2="116.21561889648437"/></g><g transform="translate(95, 10)"><text dy="1em" alignment-baseline="middle" dominant-baseline="middle" text-anchor="middle"><tspan x="0" dy="1em">ASRP.media   records</tspan><tspan x="0" dy="1.1em">Dubna   interview   /</tspan><tspan x="0" dy="1.1em">ASRP.media</tspan><tspan x="0" dy="1.1em">записывает</tspan><tspan x="0" dy="1.1em">интервью   с   Дубной</tspan></text></g></g></g><g class="lineWrapper"><line x1="2495" y1="282.0312438964844" x2="2495" y2="724.4624816894532" stroke-width="2" stroke="black" marker-end="url(#my-svg-arrowhead)" stroke-dasharray="5,5"/></g><g class="eventWrapper" transform="translate(2400, 365.815625)"><g class="timeline-node section-8"><g><path id="my-svg-node-44" class="node-bkg node-undefined" d="M0 76.01562194824218 v-71.01562194824218 q0,-5,5,-5 h180 q5,0,5,5 v76.01562194824218 H0 Z"/><line class="node-line-8" x1="0" y1="81.01562194824218" x2="190" y2="81.01562194824218"/></g><g transform="translate(95, 10)"><text dy="1em" alignment-baseline="middle" dominant-baseline="middle" text-anchor="middle"><tspan x="0" dy="1em">28   September   2021</tspan><tspan x="0" dy="1.1em">—   anonymised   JINR</tspan><tspan x="0" dy="1.1em">representative</tspan></text></g></g></g><g class="eventWrapper" transform="translate(2400, 456.8312469482422)"><g class="timeline-node section-8"><g><path id="my-svg-node-45" class="node-bkg node-undefined" d="M0 93.61562042236328 v-88.61562042236328 q0,-5,5,-5 h180 q5,0,5,5 v93.61562042236328 H0 Z"/><line class="node-line-8" x1="0" y1="98.61562042236328" x2="190" y2="98.61562042236328"/></g><g transform="translate(95, 10)"><text dy="1em" alignment-baseline="middle" dominant-baseline="middle" text-anchor="middle"><tspan x="0" dy="1em">28   сентября   2021</tspan><tspan x="0" dy="1.1em">—   неразглашённый</tspan><tspan x="0" dy="1.1em">представитель</tspan><tspan x="0" dy="1.1em">ОИЯИ</tspan></text></g></g></g><g transform="translate(2600, 50)"><g class="timeline-node section-9"><g><path id="my-svg-node-46" class="node-bkg node-undefined" d="M0 60.815625 v-55.815625 q0,-5,5,-5 h180 q5,0,5,5 v60.815625 H0 Z"/><line class="node-line-9" x1="0" y1="65.815625" x2="190" y2="65.815625"/></g><g transform="translate(95, 10)"><text dy="1em" alignment-baseline="middle" dominant-baseline="middle" text-anchor="middle"><tspan x="0" dy="1em">2025</tspan></text></g></g></g><g class="taskWrapper" transform="translate(2600, 165.815625)"><g class="timeline-node section-9"><g><path id="my-svg-node-47" class="node-bkg node-undefined" d="M0 93.61562042236328 v-88.61562042236328 q0,-5,5,-5 h180 q5,0,5,5 v93.61562042236328 H0 Z"/><line class="node-line-9" x1="0" y1="98.61562042236328" x2="190" y2="98.61562042236328"/></g><g transform="translate(95, 10)"><text dy="1em" alignment-baseline="middle" dominant-baseline="middle" text-anchor="middle"><tspan x="0" dy="1em">ASRP.media</tspan><tspan x="0" dy="1.1em">publishes   /</tspan><tspan x="0" dy="1.1em">ASRP.media</tspan><tspan x="0" dy="1.1em">публикует</tspan></text></g></g></g><g class="lineWrapper"><line x1="2695" y1="264.4312454223633" x2="2695" y2="706.8624832153321" stroke-width="2" stroke="black" marker-end="url(#my-svg-arrowhead)" stroke-dasharray="5,5"/></g><g class="eventWrapper" transform="translate(2600, 365.815625)"><g class="timeline-node section-9"><g><path id="my-svg-node-48" class="node-bkg node-undefined" d="M0 93.61562042236328 v-88.61562042236328 q0,-5,5,-5 h180 q5,0,5,5 v93.61562042236328 H0 Z"/><line class="node-line-9" x1="0" y1="98.61562042236328" x2="190" y2="98.61562042236328"/></g><g transform="translate(95, 10)"><text dy="1em" alignment-baseline="middle" dominant-baseline="middle" text-anchor="middle"><tspan x="0" dy="1em">9   December   2025   —</tspan><tspan x="0" dy="1.1em">with</tspan><tspan x="0" dy="1.1em">psycho-linguistic</tspan><tspan x="0" dy="1.1em">editorial   footnote</tspan></text></g></g></g><g class="eventWrapper" transform="translate(2600, 474.4312454223633)"><g class="timeline-node section-9"><g><path id="my-svg-node-49" class="node-bkg node-undefined" d="M0 93.61562042236328 v-88.61562042236328 q0,-5,5,-5 h180 q5,0,5,5 v93.61562042236328 H0 Z"/><line class="node-line-9" x1="0" y1="98.61562042236328" x2="190" y2="98.61562042236328"/></g><g transform="translate(95, 10)"><text dy="1em" alignment-baseline="middle" dominant-baseline="middle" text-anchor="middle"><tspan x="0" dy="1em">9   декабря   2025   —   с</tspan><tspan x="0" dy="1.1em">психолингвистической</tspan><tspan x="0" dy="1.1em">редакторской</tspan><tspan x="0" dy="1.1em">сноской</tspan></text></g></g></g><g transform="translate(2800, 50)"><g class="timeline-node section-10"><g><path id="my-svg-node-50" class="node-bkg node-undefined" d="M0 60.815625 v-55.815625 q0,-5,5,-5 h380 q5,0,5,5 v60.815625 H0 Z"/><line class="node-line-10" x1="0" y1="65.815625" x2="390" y2="65.815625"/></g><g transform="translate(195, 10)"><text dy="1em" alignment-baseline="middle" dominant-baseline="middle" text-anchor="middle"><tspan x="0" dy="1em">2026</tspan></text></g></g></g><g class="taskWrapper" transform="translate(2800, 165.815625)"><g class="timeline-node section-10"><g><path id="my-svg-node-51" class="node-bkg node-undefined" d="M0 76.01562194824218 v-71.01562194824218 q0,-5,5,-5 h180 q5,0,5,5 v76.01562194824218 H0 Z"/><line class="node-line-10" x1="0" y1="81.01562194824218" x2="190" y2="81.01562194824218"/></g><g transform="translate(95, 10)"><text dy="1em" alignment-baseline="middle" dominant-baseline="middle" text-anchor="middle"><tspan x="0" dy="1em">This   archive</tspan><tspan x="0" dy="1.1em">compiled   /   Этот</tspan><tspan x="0" dy="1.1em">архив   собран</tspan></text></g></g></g><g class="lineWrapper"><line x1="2895" y1="246.8312469482422" x2="2895" y2="689.262484741211" stroke-width="2" stroke="black" marker-end="url(#my-svg-arrowhead)" stroke-dasharray="5,5"/></g><g class="eventWrapper" transform="translate(2800, 365.815625)"><g class="timeline-node section-10"><g><path id="my-svg-node-52" class="node-bkg node-undefined" d="M0 93.61562042236328 v-88.61562042236328 q0,-5,5,-5 h180 q5,0,5,5 v93.61562042236328 H0 Z"/><line class="node-line-10" x1="0" y1="98.61562042236328" x2="190" y2="98.61562042236328"/></g><g transform="translate(95, 10)"><text dy="1em" alignment-baseline="middle" dominant-baseline="middle" text-anchor="middle"><tspan x="0" dy="1em">Cross-linked</tspan><tspan x="0" dy="1.1em">dedicated</tspan><tspan x="0" dy="1.1em">sub-archive</tspan><tspan x="0" dy="1.1em">dubna-element-115-analysis</tspan><tspan x="0" dy="1.1em"/></text></g></g></g><g class="eventWrapper" transform="translate(2800, 474.4312454223633)"><g class="timeline-node section-10"><g><path id="my-svg-node-53" class="node-bkg node-undefined" d="M0 93.61562805175781 v-88.61562805175781 q0,-5,5,-5 h180 q5,0,5,5 v93.61562805175781 H0 Z"/><line class="node-line-10" x1="0" y1="98.61562805175781" x2="190" y2="98.61562805175781"/></g><g transform="translate(95, 10)"><text dy="1em" alignment-baseline="middle" dominant-baseline="middle" text-anchor="middle"><tspan x="0" dy="1em"/><tspan x="0" dy="1.1em">Перекрёстно-ссылочный</tspan><tspan x="0" dy="1.1em">отдельный</tspan><tspan x="0" dy="1.1em">подархив</tspan><tspan x="0" dy="1.1em">dubna-element-115-analysis</tspan></text></g></g></g><g class="taskWrapper" transform="translate(3000, 165.815625)"><g class="timeline-node section-10"><g><path id="my-svg-node-54" class="node-bkg node-undefined" d="M0 111.21561889648437 v-106.21561889648437 q0,-5,5,-5 h180 q5,0,5,5 v111.21561889648437 H0 Z"/><line class="node-line-10" x1="0" y1="116.21561889648437" x2="190" y2="116.21561889648437"/></g><g transform="translate(95, 10)"><text dy="1em" alignment-baseline="middle" dominant-baseline="middle" text-anchor="middle"><tspan x="0" dy="1em">Robert   Cardillo</tspan><tspan x="0" dy="1.1em">LinkedIn   signal   /</tspan><tspan x="0" dy="1.1em">Сигнал   Роберта</tspan><tspan x="0" dy="1.1em">Кардилло   в</tspan><tspan x="0" dy="1.1em">LinkedIn</tspan></text></g></g></g><g class="lineWrapper"><line x1="3095" y1="282.0312438964844" x2="3095" y2="724.4624816894532" stroke-width="2" stroke="black" marker-end="url(#my-svg-arrowhead)" stroke-dasharray="5,5"/></g><g class="eventWrapper" transform="translate(3000, 365.815625)"><g class="timeline-node section-10"><g><path id="my-svg-node-55" class="node-bkg node-undefined" d="M0 76.01562194824218 v-71.01562194824218 q0,-5,5,-5 h180 q5,0,5,5 v76.01562194824218 H0 Z"/><line class="node-line-10" x1="0" y1="81.01562194824218" x2="190" y2="81.01562194824218"/></g><g transform="translate(95, 10)"><text dy="1em" alignment-baseline="middle" dominant-baseline="middle" text-anchor="middle"><tspan x="0" dy="1em">Former   NGA   director</tspan><tspan x="0" dy="1.1em">engages   with</tspan><tspan x="0" dy="1.1em">ASRP.media   article</tspan></text></g></g></g><g class="eventWrapper" transform="translate(3000, 456.8312469482422)"><g class="timeline-node section-10"><g><path id="my-svg-node-56" class="node-bkg node-undefined" d="M0 111.21561889648437 v-106.21561889648437 q0,-5,5,-5 h180 q5,0,5,5 v111.21561889648437 H0 Z"/><line class="node-line-10" x1="0" y1="116.21561889648437" x2="190" y2="116.21561889648437"/></g><g transform="translate(95, 10)"><text dy="1em" alignment-baseline="middle" dominant-baseline="middle" text-anchor="middle"><tspan x="0" dy="1em">Бывший   директор</tspan><tspan x="0" dy="1.1em">NGA</tspan><tspan x="0" dy="1.1em">взаимодействует   со</tspan><tspan x="0" dy="1.1em">статьёй</tspan><tspan x="0" dy="1.1em">ASRP.media</tspan></text></g></g></g><text x="1345" font-size="4ex" font-weight="bold" y="20">Lazar claim → Dubna discovery → SHEF era / Заявление Лазара → открытие Дубной → эра Фабрики</text><g class="lineWrapper"><line x1="150" y1="281.63125" x2="3440" y2="281.63125" stroke-width="4" stroke="black" marker-end="url(#my-svg-arrowhead)"/></g></svg>